<?xml version="1.0" encoding="UTF-8" standalone="no"?>
<!-- Created with Inkscape (http://www.inkscape.org/) -->

<svg
   xmlns:dc="http://purl.org/dc/elements/1.1/"
   xmlns:cc="http://creativecommons.org/ns#"
   xmlns:rdf="http://www.w3.org/1999/02/22-rdf-syntax-ns#"
   xmlns:svg="http://www.w3.org/2000/svg"
   xmlns="http://www.w3.org/2000/svg"
   xmlns:sodipodi="http://sodipodi.sourceforge.net/DTD/sodipodi-0.dtd"
   xmlns:inkscape="http://www.inkscape.org/namespaces/inkscape"
   inkscape:version="0.48.4 r9939"
   version="1.1"
   id="svg2"
   height="72.359474"
   width="570.0257"
   sodipodi:docname="aucoeur.svg">
  <defs
     id="defs4">
    <inkscape:path-effect
       effect="bend_path"
       id="path-effect3897"
       is_visible="true"
       bendpath="m 78.488133,239.55907 570.025697,0"
       prop_scale="5"
       scale_y_rel="false"
       vertical="false" />
    <inkscape:path-effect
       effect="vonkoch"
       id="path-effect3891"
       is_visible="true"
       ref_path="m 78.488133,239.55907 570.025697,0"
       generator="m 78.488133,275.73881 190.008567,0 m 190.00856,0 190.00857,0"
       similar_only="false"
       nbgenerations="1"
       drawall="true"
       maxComplexity="1000" />
    <inkscape:path-effect
       effect="spiro"
       id="path-effect3889"
       is_visible="true" />
    <inkscape:path-effect
       effect="sketch"
       id="path-effect3887"
       is_visible="true"
       nbiter_approxstrokes="5"
       strokelength="100"
       strokelength_rdm="0.3;1"
       strokeoverlap="0.3"
       strokeoverlap_rdm="0.3;1"
       ends_tolerance="0.1;1"
       parallel_offset="5;1"
       tremble_size="5;1"
       tremble_frequency="1"
       nbtangents="5"
       tgt_places_rdmness="1;1"
       tgtscale="10"
       tgtlength="100"
       tgtlength_rdm="0.3;1" />
    <inkscape:path-effect
       effect="knot"
       id="path-effect3885"
       is_visible="true"
       interruption_width="1"
       prop_to_stroke_width="true"
       add_stroke_width="true"
       add_other_stroke_width="true"
       switcher_size="50"
       crossing_points_vector="623.88983 | 245.28333 | 0 | 0 | 0 | 3 | 0 | 19 | 1 | 617.89298 | 242.0529 | 0 | 1 | 2 | 2 | 14.97134 | 11.020588 | 1 | 615.20527 | 239.5626 | 0 | 1 | 1 | 3 | 14.013986 | 11.971076 | 1 | 581.60848 | 239.70134 | 1 | 3 | 0 | 4 | 3.8058707 | 15.309047 | 1 | 576.73759 | 250.15662 | 1 | 3 | 1 | 3 | 4.3101902 | 13.596247 | 1 | 581.26024 | 240.09933 | 3 | 3 | 0 | 5 | 4.7570881e-15 | 16 | 1 | 539.72171 | 251.08762 | 3 | 4 | 2 | 4 | 7.9202988 | 7.5341377 | 1 | 546.36288 | 239.56559 | 3 | 4 | 1 | 5 | 7.6980375 | 9.0733721 | 1 | 503.34386 | 271.05933 | 4 | 4 | 0 | 8 | 5.6141883e-15 | 18 | 1 | 516.44786 | 249.89133 | 4 | 4 | 0 | 2 | 5 | 5.0002894 | 1 | 516.44786 | 249.89133 | 4 | 4 | 1 | 3 | 5 | 5.0007234 | 1 | 507.48445 | 250.75951 | 4 | 5 | 7 | 3 | 16.608414 | 5.5606086 | 1 | 513.95833 | 239.52773 | 4 | 5 | 6 | 4 | 16.391752 | 6.9966253 | 1 | 512.22011 | 232.46733 | 5 | 5 | 0 | 5 | 2.6312286e-14 | 12 | 1 | 486.05708 | 239.538 | 5 | 7 | 1 | 2 | 3.9208756 | 8.9888849 | 1 | 483.48809 | 247.79702 | 5 | 7 | 2 | 1 | 4.3170941 | 7.7815507 | 1 | 499.69211 | 229.01133 | 6 | 6 | 0 | 1 | 7.4269153e-15 | 4 | 1 | 455.35136 | 252.84333 | 7 | 7 | 0 | 3 | 9.1067894e-10 | 20 | 1 | 449.08736 | 268.39533 | 8 | 8 | 0 | 1 | 0 | 3 | 1 | 430.51699 | 232.46733 | 9 | 9 | 0 | 3 | 2.0178303e-13 | 12 | 1 | 404.21564 | 239.77529 | 9 | 11 | 1 | 1 | 3.9384999 | 13.437435 | 1 | 401.79711 | 247.95994 | 9 | 11 | 2 | 0 | 4.3249812 | 11.716618 | 1 | 417.98899 | 229.01133 | 10 | 10 | 0 | 1 | 1.4853831e-14 | 4 | 1 | 382.69211 | 229.01133 | 12 | 12 | 0 | 1 | 0 | 6 | 1 | 326.88986 | 245.28333 | 13 | 13 | 0 | 3 | 0 | 19 | 1 | 318.20232 | 239.55838 | 13 | 14 | 1 | 18 | 14.012481 | 15.060845 | 1 | 321.02051 | 242.07512 | 13 | 14 | 2 | 17 | 15.00321 | 14.013271 | 1 | 317.72899 | 240.09933 | 14 | 14 | 0 | 19 | 7.9284802e-16 | 16 | 1 | 318.88096 | 219.21933 | 14 | 14 | 0 | 0 | 3.0000038 | 8.0000038 | 1 | 318.8809 | 219.21933 | 14 | 14 | 0 | 0 | 3.0000114 | 8.0000038 | 1 | 318.88096 | 219.21933 | 14 | 14 | 0 | 0 | 3.0000038 | 8.0000114 | 1 | 318.8809 | 219.21933 | 14 | 14 | 0 | 0 | 3.0000114 | 8.0000114 | 1 | 318.88085 | 219.21933 | 14 | 14 | 0 | 0 | 3.0000191 | 8.0000038 | 1 | 318.88079 | 219.21933 | 14 | 14 | 0 | 0 | 3.0000267 | 8.0000038 | 1 | 318.88085 | 219.21933 | 14 | 14 | 0 | 0 | 3.0000191 | 8.0000114 | 1 | 318.88079 | 219.21933 | 14 | 14 | 0 | 0 | 3.0000267 | 8.0000114 | 1 | 318.88096 | 219.21933 | 14 | 14 | 0 | 0 | 3.0000038 | 8.0000191 | 1 | 318.88096 | 219.21933 | 14 | 14 | 0 | 0 | 3.0000038 | 8.0000267 | 1 | 318.8809 | 219.21933 | 14 | 14 | 0 | 0 | 3.0000114 | 8.0000191 | 1 | 318.8809 | 219.21933 | 14 | 14 | 2 | 0 | 3.0000114 | 8.0000267 | 1 | 318.88085 | 219.21933 | 14 | 14 | 0 | 0 | 3.0000191 | 8.0000191 | 1 | 318.88079 | 219.21933 | 14 | 14 | 0 | 0 | 3.0000267 | 8.0000191 | 1 | 318.88085 | 219.21933 | 14 | 14 | 3 | 0 | 3.0000191 | 8.0000267 | 1 | 318.88079 | 219.21933 | 14 | 14 | 4 | 0 | 3.0000267 | 8.0000267 | 1 | 318.88073 | 219.21933 | 14 | 14 | 0 | 0 | 3.0000343 | 8.0000038 | 1 | 318.88068 | 219.21933 | 14 | 14 | 0 | 0 | 3.000042 | 8.0000038 | 1 | 318.88073 | 219.21933 | 14 | 14 | 0 | 0 | 3.0000343 | 8.0000114 | 1 | 318.88068 | 219.21933 | 14 | 14 | 0 | 0 | 3.000042 | 8.0000114 | 1 | 318.88062 | 219.21933 | 14 | 14 | 0 | 0 | 3.0000496 | 8.0000038 | 1 | 318.88056 | 219.21933 | 14 | 14 | 0 | 9 | 3.0000572 | 8.0000038 | 1 | 318.88062 | 219.21933 | 14 | 14 | 0 | 0 | 3.0000496 | 8.0000114 | 1 | 318.88056 | 219.21933 | 14 | 14 | 0 | 10 | 3.0000572 | 8.0000114 | 1 | 318.88073 | 219.21933 | 14 | 14 | 0 | 0 | 3.0000343 | 8.0000191 | 1 | 318.88068 | 219.21933 | 14 | 14 | 0 | 0 | 3.000042 | 8.0000191 | 1 | 318.88073 | 219.21933 | 14 | 14 | 5 | 0 | 3.0000343 | 8.0000267 | 1 | 318.88068 | 219.21933 | 14 | 14 | 6 | 0 | 3.000042 | 8.0000267 | 1 | 318.88062 | 219.21933 | 14 | 14 | 0 | 0 | 3.0000496 | 8.0000191 | 1 | 318.88056 | 219.21933 | 14 | 14 | 0 | 11 | 3.0000572 | 8.0000191 | 1 | 318.88062 | 219.21933 | 14 | 14 | 7 | 0 | 3.0000496 | 8.0000267 | 1 | 318.88056 | 219.21933 | 14 | 14 | 8 | 12 | 3.0000572 | 8.0000267 | 1 | 318.88096 | 219.21933 | 14 | 14 | 0 | 13 | 3.0000038 | 8.0000343 | 1 | 318.88096 | 219.21933 | 14 | 14 | 1 | 14 | 3.0000038 | 8.000042 | 1 | 282.84821 | 239.58394 | 14 | 15 | 15 | 4 | 9.8012515 | 7.105222 | 1 | 277.99225 | 249.59321 | 14 | 15 | 16 | 3 | 10.274441 | 5.6283854 | 1 | 281.17324 | 232.46733 | 15 | 15 | 0 | 5 | 1.9726342e-14 | 12 | 1 | 261.99007 | 227.56337 | 15 | 17 | 1 | 5 | 3.0314942 | 5.2600413 | 1 | 252.68729 | 249.3803 | 15 | 17 | 2 | 0 | 4.3961632 | 0.026954822 | 1 | 268.64524 | 229.01133 | 16 | 16 | 0 | 1 | 0 | 4 | 1 | 257.05249 | 243.86297 | 17 | 17 | 1 | 4 | 0.82493999 | 3.5675574 | 1 | 259.69047 | 240.85926 | 17 | 17 | 2 | 3 | 1.2742967 | 3.2350219 | 1 | 232.10452 | 239.7153 | 17 | 19 | 6 | 2 | 8.9567039 | 10.333275 | 1 | 229.32473 | 247.96268 | 17 | 19 | 7 | 1 | 9.1883066 | 8.7164767 | 1 | 218.01649 | 229.01133 | 19 | 19 | 0 | 3 | 0 | 14 | 1 | 184.72096 | 219.21933 | 20 | 20 | 0 | 0 | 3.0000038 | 8.0000038 | 1 | 184.7209 | 219.21933 | 20 | 20 | 0 | 0 | 3.0000114 | 8.0000038 | 1 | 184.72096 | 219.21933 | 20 | 20 | 0 | 0 | 3.0000038 | 8.0000114 | 1 | 184.7209 | 219.21933 | 20 | 20 | 0 | 0 | 3.0000114 | 8.0000114 | 1 | 184.72085 | 219.21933 | 20 | 20 | 0 | 0 | 3.0000191 | 8.0000038 | 1 | 184.72079 | 219.21933 | 20 | 20 | 0 | 0 | 3.0000267 | 8.0000038 | 1 | 184.72085 | 219.21933 | 20 | 20 | 0 | 0 | 3.0000191 | 8.0000114 | 1 | 184.72079 | 219.21933 | 20 | 20 | 0 | 0 | 3.0000267 | 8.0000114 | 1 | 184.72096 | 219.21933 | 20 | 20 | 0 | 0 | 3.0000038 | 8.0000191 | 1 | 184.72096 | 219.21933 | 20 | 20 | 0 | 0 | 3.0000038 | 8.0000267 | 1 | 184.7209 | 219.21933 | 20 | 20 | 0 | 0 | 3.0000114 | 8.0000191 | 1 | 184.7209 | 219.21933 | 20 | 20 | 1 | 0 | 3.0000114 | 8.0000267 | 1 | 184.72085 | 219.21933 | 20 | 20 | 0 | 0 | 3.0000191 | 8.0000191 | 1 | 184.72079 | 219.21933 | 20 | 20 | 0 | 0 | 3.0000267 | 8.0000191 | 1 | 184.72085 | 219.21933 | 20 | 20 | 2 | 0 | 3.0000191 | 8.0000267 | 1 | 184.72079 | 219.21933 | 20 | 20 | 3 | 0 | 3.0000267 | 8.0000267 | 1 | 184.72073 | 219.21933 | 20 | 20 | 0 | 0 | 3.0000343 | 8.0000038 | 1 | 184.72068 | 219.21933 | 20 | 20 | 0 | 0 | 3.000042 | 8.0000038 | 1 | 184.72073 | 219.21933 | 20 | 20 | 0 | 0 | 3.0000343 | 8.0000114 | 1 | 184.72068 | 219.21933 | 20 | 20 | 0 | 0 | 3.000042 | 8.0000114 | 1 | 184.72062 | 219.21933 | 20 | 20 | 0 | 0 | 3.0000496 | 8.0000038 | 1 | 184.72056 | 219.21933 | 20 | 20 | 0 | 8 | 3.0000572 | 8.0000038 | 1 | 184.72062 | 219.21933 | 20 | 20 | 0 | 0 | 3.0000496 | 8.0000114 | 1 | 184.72056 | 219.21933 | 20 | 20 | 0 | 9 | 3.0000572 | 8.0000114 | 1 | 184.72073 | 219.21933 | 20 | 20 | 0 | 0 | 3.0000343 | 8.0000191 | 1 | 184.72068 | 219.21933 | 20 | 20 | 0 | 0 | 3.000042 | 8.0000191 | 1 | 184.72073 | 219.21933 | 20 | 20 | 4 | 0 | 3.0000343 | 8.0000267 | 1 | 184.72068 | 219.21933 | 20 | 20 | 5 | 0 | 3.000042 | 8.0000267 | 1 | 184.72062 | 219.21933 | 20 | 20 | 0 | 0 | 3.0000496 | 8.0000191 | 1 | 184.72056 | 219.21933 | 20 | 20 | 0 | 10 | 3.0000572 | 8.0000191 | 1 | 184.72062 | 219.21933 | 20 | 20 | 6 | 0 | 3.0000496 | 8.0000267 | 1 | 184.72056 | 219.21933 | 20 | 20 | 7 | 11 | 3.0000572 | 8.0000267 | 1 | 184.72096 | 219.21933 | 20 | 20 | 0 | 12 | 3.0000038 | 8.0000343 | 1 | 184.72096 | 219.21933 | 20 | 20 | 0 | 13 | 3.0000038 | 8.000042 | 1 | 148.72077 | 239.5276 | 20 | 21 | 14 | 1 | 9.7990347 | 14.996726 | 1 | 143.70966 | 250.59609 | 20 | 21 | 15 | 0 | 10.339064 | 13.57041 | 1 | 141.36686 | 212.81133 | 22 | 22 | 0 | 1 | 1.8929909e-15 | 3 | 1" />
  </defs>
  <sodipodi:namedview
     id="base"
     pagecolor="#ffffff"
     bordercolor="#666666"
     borderopacity="1.0"
     inkscape:pageopacity="0.0"
     inkscape:pageshadow="2"
     inkscape:zoom="1.4"
     inkscape:cx="165.87631"
     inkscape:cy="-37.106893"
     inkscape:document-units="px"
     inkscape:current-layer="layer1"
     showgrid="false"
     inkscape:window-width="1920"
     inkscape:window-height="1015"
     inkscape:window-x="0"
     inkscape:window-y="26"
     inkscape:window-maximized="1"
     fit-margin-top="0"
     fit-margin-left="0"
     fit-margin-right="0"
     fit-margin-bottom="0" />
  <metadata
     id="metadata7">
    <rdf:RDF>
      <cc:Work
         rdf:about="">
        <dc:format>image/svg+xml</dc:format>
        <dc:type
           rdf:resource="http://purl.org/dc/dcmitype/StillImage" />
      </cc:Work>
    </rdf:RDF>
  </metadata>
  <g
     inkscape:label="Layer 1"
     inkscape:groupmode="layer"
     id="layer1"
     transform="translate(-78.488133,-203.37933)">
    <g
       style="font-size:40px;font-style:normal;font-weight:normal;line-height:125%;letter-spacing:0px;word-spacing:0px;fill:#000000;fill-opacity:1;stroke:none;font-family:Sans"
       id="text2985">
      <path
         id="path3091"
         style="font-size:72px;font-variant:normal;font-stretch:normal;font-family:Wisdom Script;-inkscape-font-specification:Wisdom Script"
         d="m 623.88983,245.28333 c -3.16799,5.54399 -0.93599,10.656 5.112,10.656 6.192,0 13.32001,-6.62401 19.512,-13.824 -0.504,-1.008 -1.8,-2.16 -2.808,-2.592 l -0.504,0.576 c -5.39999,6.26399 -10.656,11.232 -13.968,11.232 -1.65599,0 -2.59199,-1.152 -0.864,-4.104 l 7.488,-13.104 c 2.592,-4.536 1.368,-7.2 -1.08,-10.152 l -4.176,-5.04 c -1.08,-1.368 -1.07999,-2.88 0.432,-4.32 l -3.888,-4.248 c -4.24799,3.816 -4.60799,8.064 -1.944,11.52 l 0.648,0.864 c -3.31199,4.68 -7.776,11.01601 -12.672,16.776 0.648,0.936 1.728,1.872 2.808,2.592 3.6,-4.176 6.40801,-7.92001 12.384,-16.056 l 1.008,1.224 c 0.936,1.224 1.296,2.736 0.432,4.248 l -7.92,13.752 m -38.50872,4.608 c -1.87199,-0.792 10e-6,-3.6 0.936,-5.184 l 14.616,-25.488 -7.488,0 -14.688,25.416 c -3.81599,6.62399 -2.08799,11.304 2.88,11.304 3.6,0 7.70401,-3.024 11.088,-6.048 l -4.104,7.056 c -10.15199,3.024 -16.488,7.20001 -16.488,12.816 0,7.19999 11.01601,8.71199 16.416,-0.504 l 5.76,-9.864 c 7.776,-2.448 15.40801,-7.77601 23.616,-17.28 -0.504,-1.008 -1.8,-2.16 -2.808,-2.592 l -0.504,0.576 c -6.19199,7.12799 -11.448,11.736 -17.352,14.256 l 20.52,-35.136 -7.488,0 -13.248,23.04 c -5.75999,5.32799 -10.224,8.28 -11.664,7.632 m -7.2,18.504 c 0,-1.944 1.80001,-4.176 7.56,-6.408 l -3.456,6.048 c -1.58399,2.808 -4.104,2.376 -4.104,0.36 m 3.07913,-28.296 c -5.4,6.26399 -10.656,11.232 -13.968,11.232 -1.656,0 -2.592,-1.152 -0.864,-4.104 l 10.8,-18.936 c 3.24,-5.68799 0.14399,-9.792 -4.032,-9.792 -3.24,0 -6.696,1.8 -10.44,5.688 l 11.952,-20.808 -7.488,0 -29.88,51.84 7.56,0 11.376,-19.8 c 11.51999,-14.47199 16.632,-12.59999 13.392,-7.056 l -9.72,16.92 c -3.168,5.54399 -0.93599,10.656 5.112,10.656 6.19199,0 13.32001,-6.62401 19.512,-13.824 -0.504,-1.008 -1.8,-2.16 -2.808,-2.592 l -0.504,0.576 m -77.91638,30.96 22.392,-38.952 c 8.352,-11.37599 13.608,-7.2 11.664,-3.816 l -11.304,19.584 c -1.22399,2.16 -4.032,2.808 -5.4,0 l -4.248,2.016 c 0,0 1.36801,6.048 8.208,6.048 l 0.432,0 c 10.87199,-0.216 18.00001,-6.69601 24.12,-13.824 -0.432,-1.152 -1.728,-2.304 -2.808,-2.592 l -0.504,0.576 c -4.17599,4.89599 -9.144,8.928 -13.68,10.512 1.224,-1.944 2.16001,-4.032 3.096,-5.616 l 8.28,-14.184 c 6.984,-11.87999 -4.32,-15.83999 -11.952,-9 l 1.512,-2.592 -7.488,0 -29.88,51.84 7.56,0 m 8.87625,-38.592 1.08,-1.872 c 4.032,-6.91199 0.144,-12.096 -5.976,-12.096 -6.04799,0 -10.872,3.16801 -14.04,8.64 l -7.848,13.464 c -4.67999,7.99199 -0.64799,15.336 8.208,15.336 8.496,0 16.92001,-6.62401 23.112,-13.824 -0.504,-1.008 -1.8,-2.16 -2.808,-2.592 l -0.504,0.576 c -5.39999,6.26399 -12.312,11.232 -17.568,11.232 -4.60799,0 -7.34399,-2.88001 -3.888,-8.928 l 0.72,-1.296 c 4.824,2.016 13.89601,1.07999 19.512,-8.64 m -12.528,-3.456 c 4.32,-7.41599 11.952,-6.19199 7.488,1.584 l -1.08,1.872 c -3.59999,6.11999 -8.424,5.976 -11.232,4.968 l 4.824,-8.424 m -44.34075,23.832 0.072,0 0.144,0 c 2.664,-0.216 5.328,1.512 4.104,4.032 -10.22399,3.096 -16.632,7.27201 -16.632,12.888 0,7.19999 11.37601,8.85599 16.704,-0.432 l 3.96,-6.912 c 0.576,-1.08 1.008,-2.016 1.296,-2.952 7.92,-2.448 15.55201,-7.77601 23.832,-17.352 -0.504,-1.008 -1.8,-2.16 -2.808,-2.592 l -0.504,0.576 c -7.12799,8.20799 -13.032,13.032 -20.088,15.192 -0.216,-1.8 -1.08,-3.24 -2.304,-4.248 l 0.288,-0.072 c 19.72798,-8.92799 26.92799,-32.472 14.112,-32.472 -9.86399,0 -18.144,13.10401 -24.912,21.024 0.648,0.936 1.72801,1.872 2.808,2.592 4.248,-4.896 16.63201,-21.096 20.52,-17.208 4.464,4.464 -8.92801,19.368 -21.024,23.4 l 0.504,4.464 -0.072,0.072 m -6.264,15.552 c 0,-1.944 1.80001,-4.176 7.632,-6.408 l -3.528,6.048 c -1.65599,2.808 -4.104,2.376 -4.104,0.36 m -18.57037,-35.928 1.08,-1.872 c 4.032,-6.91199 0.14399,-12.096 -5.976,-12.096 -6.04799,0 -10.872,3.16801 -14.04,8.64 l -7.848,13.464 c -4.68,7.99199 -0.64799,15.336 8.208,15.336 8.49599,0 16.92001,-6.62401 23.112,-13.824 -0.504,-1.008 -1.8,-2.16 -2.808,-2.592 l -0.504,0.576 c -5.4,6.26399 -12.31201,11.232 -17.568,11.232 -4.608,0 -7.344,-2.88001 -3.888,-8.928 l 0.72,-1.296 c 4.82399,2.016 13.896,1.07999 19.512,-8.64 m -12.528,-3.456 c 4.31999,-7.41599 11.95199,-6.19199 7.488,1.584 l -1.08,1.872 c -3.6,6.11999 -8.424,5.976 -11.232,4.968 l 4.824,-8.424 m -14.05688,11.088 c -5.39999,6.26399 -10.656,11.232 -13.968,11.232 -1.65599,0 -2.59199,-1.152 -0.864,-4.104 l 25.344,-43.848 -7.488,0 -11.016,19.008 c -1.29599,-2.088 -3.744,-3.888 -6.84,-3.888 -4.03199,0 -9.648,3.16801 -12.816,8.64 l -10.512,18.144 c -3.16799,5.54399 -0.93599,10.656 5.112,10.656 3.024,0 6.76801,-1.944 10.368,-4.896 0.36,2.88 2.66401,4.896 6.48,4.896 6.192,0 13.32001,-6.62401 19.512,-13.824 -0.504,-1.008 -1.8,-2.16 -2.808,-2.592 l -0.504,0.576 m -21.24,-11.088 c 4.032,-6.98399 12.024,-5.18399 8.352,1.584 l 0.072,0 -5.688,9.792 c -4.53599,7.41599 -9.144,10.944 -12.312,10.944 -1.65599,0 -2.59199,-1.152 -0.864,-4.104 l 10.44,-18.216 m -55.80225,16.272 c -3.16799,5.54399 -0.93599,10.656 5.112,10.656 6.192,0 13.32001,-6.62401 19.512,-13.824 -0.504,-1.008 -1.8,-2.16 -2.808,-2.592 l -0.504,0.576 c -5.39999,6.26399 -10.656,11.232 -13.968,11.232 -1.65599,0 -2.59199,-1.152 -0.864,-4.104 l 7.488,-13.104 c 2.592,-4.536 1.368,-7.2 -1.08,-10.152 l -4.176,-5.04 c -1.07999,-1.368 -1.07999,-2.88 0.432,-4.32 l -3.888,-4.248 c -4.24799,3.816 -4.60799,8.064 -1.944,11.52 l 0.648,0.864 c -3.31199,4.68 -7.776,11.01601 -12.672,16.776 0.648,0.936 1.72801,1.872 2.808,2.592 3.6,-4.176 6.40801,-7.92001 12.384,-16.056 l 1.008,1.224 c 0.936,1.224 1.296,2.736 0.432,4.248 l -7.92,13.752 m -9.16087,-5.184 c -5.4,6.26399 -10.656,11.232 -13.968,11.232 -1.656,0 -2.592,-1.152 -0.864,-4.104 l 15.984,-28.008 -7.488,0 -13.32,23.256 c -5.688,5.18399 -10.08,8.064 -11.52,7.416 -1.872,-0.792 0,-3.6 0.936,-5.184 l 14.616,-25.488 -7.488,0 -14.688,25.416 c -3.816,6.62399 -2.088,11.304 2.88,11.304 4.10399,0 8.712,-3.744 12.312,-7.2 -0.72,4.032 1.656,7.2 6.408,7.2 6.19199,0 13.32001,-6.62401 19.512,-13.824 -0.504,-1.008 -1.8,-2.16 -2.808,-2.592 l -0.504,0.576 m -36.55575,-7.632 1.08,-1.872 c 4.032,-6.91199 0.14399,-12.096 -5.976,-12.096 -6.04799,0 -10.872,3.16801 -14.04,8.64 l -7.848,13.464 c -4.68,7.99199 -0.64799,15.336 8.208,15.336 8.49599,0 16.92001,-6.62401 23.112,-13.824 -0.504,-1.008 -1.8,-2.16 -2.808,-2.592 l -0.504,0.576 c -5.4,6.26399 -12.31201,11.232 -17.568,11.232 -4.608,0 -7.344,-2.88001 -3.888,-8.928 l 0.72,-1.296 c 4.82399,2.016 13.896,1.07999 19.512,-8.64 m -12.528,-3.456 c 4.31999,-7.41599 11.95199,-6.19199 7.488,1.584 l -1.08,1.872 c -3.6,6.11999 -8.424,5.976 -11.232,4.968 l 4.824,-8.424 m -16.305,20.376 c 4.46399,0 2.42863,-3.24108 6.24463,-7.77708 -0.504,-1.008 7.29136,-1.65492 6.28337,-2.08692 l -3.02938,-1.19177 c -3.384,3.672 -5.03463,7.23977 -8.77862,7.31177 l 7.056,-12.168 c 4.53599,-7.84799 0.35999,-15.264 -6.696,-15.264 -5.76,0 -10.22401,2.30401 -14.544,9.792 l -3.672,6.408 -3.24,5.544 c -9.432,16.19998 8.64001,22.17599 18.72,9.432 l 1.656,0 m -7.488,-2.376 -0.072,0.144 c -3.528,6.04799 -12.096,4.89599 -7.632,-2.88 l 5.688,-9.864 3.6,-6.12 c 5.25599,-8.92799 12.45599,-5.39999 7.92,2.376 l -5.472,9.36 m -30.86775,-11.016 c 4.31999,-7.41599 11.95199,-6.19199 7.488,1.584 l -1.08,1.872 6.12,0 1.08,-1.872 c 4.03199,-6.91199 0.14399,-12.096 -5.976,-12.096 -6.048,0 -10.87201,3.16801 -14.04,8.64 l -7.848,13.464 c -4.68,7.99199 -0.648,15.336 8.208,15.336 8.49599,0 16.92,-6.62401 23.112,-13.824 -0.504,-1.008 -1.80001,-2.16 -2.808,-2.592 l -0.504,0.576 c -5.4,6.26399 -12.31201,11.232 -17.568,11.232 -4.608,0 -7.344,-2.88001 -3.888,-8.928 l 7.704,-13.392 m -34.4475,11.088 c -5.4,6.26399 -10.65601,11.232 -13.968,11.232 -1.656,0 -2.592,-1.152 -0.864,-4.104 l 15.984,-28.008 -7.488,0 -13.32,23.256 c -5.688,5.18399 -10.08001,8.064 -11.52,7.416 -1.872,-0.792 0,-3.6 0.936,-5.184 l 14.616,-25.488 -7.488,0 -14.688,25.416 c -3.816,6.62399 -2.088,11.304 2.88,11.304 4.10399,0 8.712,-3.744 12.312,-7.2 -0.72,4.032 1.656,7.2 6.408,7.2 6.19199,0 13.32,-6.62401 19.512,-13.824 -0.504,-1.008 -1.80001,-2.16 -2.808,-2.592 l -0.504,0.576 m -35.36213,0 c -5.39999,6.26399 -10.44,10.8 -11.808,10.8 -1.08,0 -1.224,-0.72 -0.216,-3.672 l 14.832,-43.2 c -16.48798,-5.32799 -35.28002,45.288 -54.432,45.432 -11.519988,0.072 -14.615994,-11.01601 -8.712,-21.024 6.479994,-11.01599 17.784,-11.23199 21.312,-2.664 l 5.976,-2.304 c -5.83199,-13.46399 -24.696008,-12.38399 -32.904,1.728 -8.855991,15.26398 -1.295984,30.744 14.328,30.744 10.29599,0 18.50401,-8.35201 25.992,-18.288 l 10.08,0 -2.664,7.632 c -1.944,5.54399 -1.43999,10.656 3.96,10.656 5.47199,0 11.37601,-6.62401 17.568,-13.824 -0.504,-1.008 -1.8,-2.16 -2.808,-2.592 l -0.504,0.576 m -6.84,-27.288 -7.488,21.24 -8.64,0 c 5.54399,-7.63199 10.72801,-15.69601 16.128,-21.24" />
    </g>
  </g>
</svg>
