<?xml version="1.0" encoding="UTF-8" standalone="no"?>
<!-- Created with Inkscape (http://www.inkscape.org/) -->

<svg
   xmlns:dc="http://purl.org/dc/elements/1.1/"
   xmlns:cc="http://creativecommons.org/ns#"
   xmlns:rdf="http://www.w3.org/1999/02/22-rdf-syntax-ns#"
   xmlns:svg="http://www.w3.org/2000/svg"
   xmlns="http://www.w3.org/2000/svg"
   xmlns:xlink="http://www.w3.org/1999/xlink"
   xmlns:sodipodi="http://sodipodi.sourceforge.net/DTD/sodipodi-0.dtd"
   xmlns:inkscape="http://www.inkscape.org/namespaces/inkscape"
   width="2527.0652"
   height="696.57111"
   id="svg2"
   version="1.1"
   inkscape:version="0.48.4 r9939"
   sodipodi:docname="logo3.svg">
  <defs
     id="defs4">
    <inkscape:perspective
       sodipodi:type="inkscape:persp3d"
       inkscape:vp_x="50.507627 : 352.32616 : 1"
       inkscape:vp_y="0 : 1000 : 0"
       inkscape:vp_z="2676.6152 : 348.28555 : 1"
       inkscape:persp3d-origin="1338.3076 : 232.19037 : 1"
       id="perspective5925" />
    <linearGradient
       id="linearGradient3867">
      <stop
         id="stop3869"
         offset="0"
         style="stop-color:#f27937;stop-opacity:1;" />
      <stop
         id="stop3871"
         offset="1"
         style="stop-color:#ee495e;stop-opacity:1;" />
    </linearGradient>
    <linearGradient
       id="linearGradient3789">
      <stop
         style="stop-color:#f27937;stop-opacity:1;"
         offset="0"
         id="stop3791" />
      <stop
         style="stop-color:#ee495e;stop-opacity:1;"
         offset="1"
         id="stop3793" />
    </linearGradient>
    <linearGradient
       inkscape:collect="always"
       xlink:href="#linearGradient3867-2"
       id="linearGradient5958-6"
       gradientUnits="userSpaceOnUse"
       gradientTransform="translate(-5.7378944,0)"
       x1="70.851608"
       y1="182.72443"
       x2="745.44641"
       y2="877.70935" />
    <linearGradient
       id="linearGradient3867-2">
      <stop
         id="stop3869-9"
         offset="0"
         style="stop-color:#f27937;stop-opacity:1;" />
      <stop
         id="stop3871-2"
         offset="1"
         style="stop-color:#ee495e;stop-opacity:1;" />
    </linearGradient>
    <linearGradient
       inkscape:collect="always"
       xlink:href="#linearGradient3867"
       id="linearGradient6108"
       gradientUnits="userSpaceOnUse"
       gradientTransform="translate(-1000,0)"
       x1="70.851608"
       y1="182.72443"
       x2="745.44641"
       y2="877.70935" />
  </defs>
  <sodipodi:namedview
     id="base"
     pagecolor="#423748"
     bordercolor="#666666"
     borderopacity="1.0"
     inkscape:pageopacity="1"
     inkscape:pageshadow="2"
     inkscape:zoom="0.175"
     inkscape:cx="2106.8821"
     inkscape:cy="512.55132"
     inkscape:document-units="px"
     inkscape:current-layer="layer1"
     showgrid="false"
     fit-margin-top="0"
     fit-margin-left="0"
     fit-margin-right="1000"
     fit-margin-bottom="0"
     inkscape:window-width="1920"
     inkscape:window-height="1015"
     inkscape:window-x="0"
     inkscape:window-y="26"
     inkscape:window-maximized="1"
     showguides="true"
     inkscape:guide-bbox="true">
    <sodipodi:guide
       orientation="0,1"
       position="1660.6908,901.05601"
       id="guide5943" />
    <sodipodi:guide
       orientation="1,0"
       position="-135.36044,1040.4571"
       id="guide6110" />
  </sodipodi:namedview>
  <metadata
     id="metadata7">
    <rdf:RDF>
      <cc:Work
         rdf:about="">
        <dc:format>image/svg+xml</dc:format>
        <dc:type
           rdf:resource="http://purl.org/dc/dcmitype/StillImage" />
        <dc:title></dc:title>
      </cc:Work>
    </rdf:RDF>
  </metadata>
  <g
     inkscape:label="Layer 1"
     inkscape:groupmode="layer"
     id="layer1"
     transform="translate(935.20931,-179.91107)">
    <path
       style="fill:url(#linearGradient6108);fill-opacity:1;fill-rule:nonzero"
       d="m -829.94187,827.48112 c -0.3259,-42.88706 -0.1743,-49.71905 1.16071,-52.32736 1.20849,-2.36105 1.642,-8.16513 2.03549,-27.25123 0.275,-13.33818 0.23761,-24.25068 -0.083,-24.25 -0.32069,6.8e-4 -4.57,8.55123 -9.44299,19.00123 -4.87301,10.45 -9.15061,19 -9.5059,19 -0.35531,0 -0.9394,-12.72388 -1.298,-28.27528 l -0.65211,-28.27528 8.0772,-23.47472 c 21.006,-61.04967 28.7,-83.97472 28.1832,-83.97472 -0.3091,0 -12.3278,6.59617 -26.7082,14.65814 l -26.1462,14.65815 -13.46194,32.59185 c -12.7447,30.85543 -13.4779,32.34569 -13.7615,27.97129 -0.2462,-3.7992 0.8768,-7.5054 6.3177,-20.84898 3.6395,-8.92562 6.3892,-16.45641 6.1105,-16.73508 -0.2786,-0.27867 -5.9865,2.03841 -12.6842,5.14907 -6.6977,3.11067 -12.3596,5.47375 -12.5821,5.2513 -0.2224,-0.22245 7.1926,-14.98249 16.4779,-32.80009 62.98024,-120.85333 64.53354,-123.86931 64.02764,-124.32369 -0.2023,-0.1817 -25.1179,-15.50189 -55.36794,-34.04487 -30.25,-18.54297 -55.4275,-34.12233 -55.95,-34.62079 -0.5685,-0.5424 16.5967,-0.9063 42.75,-0.9063 34.99564,0 43.70004,-0.25672 43.70004,-1.28883 0,-1.06296 -11.6066,-78.45226 -34.37554,-229.20374 -1.9099,-12.64591 -3.3569,-23.10827 -3.2155,-23.2497 0.1414,-0.14142 29.17604,35.06774 64.52134,78.24257 l 64.2643,78.4997 19.1527,-0.0318 c 15.2531,-0.0253 18.8329,-0.27984 17.5819,-1.25 -0.864,-0.67001 -6.3985,-4.8182 -12.2989,-9.2182 l -10.7281,-8 47.7989,-0.25929 47.7989,-0.25929 -0.3473,-8.36316 c -0.4374,-10.52975 1.0509,-17.75757 5.4792,-26.60917 8.6007,-17.19173 26.5084,-28.00909 46.3681,-28.00909 14.9267,0 25.8001,4.57344 36.5923,15.39105 11.2993,11.32589 16.2053,24.279 15.1897,40.10463 l -0.4803,7.48493 47.0991,0.25969 47.0992,0.2597 -11.75,8.87233 c -6.4625,4.87978 -11.7506,9.15478 -11.7514,9.5 -8e-4,0.34522 8.5089,0.40267 18.9104,0.12767 l 18.9119,-0.5 64.0896,-78.33253 c 35.2492,-43.08289 64.08949,-77.55862 64.08949,-76.61273 0,1.84226 -36.69229,246.42934 -37.53209,250.18485 l -0.5007,2.23958 44.09209,0.26042 44.0922,0.26041 -51.3257,31.45654 c -28.22919,17.3011 -53.63989,32.92151 -56.46829,34.71202 l -5.1426,3.25547 18.3163,35.28799 c 10.0739,19.40839 28.4223,54.63798 40.77419,78.28798 12.3519,23.65 22.1451,43.12205 21.7627,43.27121 -0.3825,0.14917 -6.2917,-2.38286 -13.1317,-5.62673 -6.84,-3.24387 -12.5501,-5.80217 -12.6891,-5.68512 -0.139,0.11705 2.628,7.37408 6.149,16.12673 4.0411,10.0457 6.5713,17.87154 6.8616,21.22277 0.2529,2.91988 0.1176,4.94488 -0.3006,4.5 -0.4183,-0.44487 -6.6063,-14.98386 -13.7513,-32.30886 l -12.99069,-31.5 -26.2318,-14.79247 c -14.4275,-8.13586 -26.4112,-14.61314 -26.6304,-14.39396 -0.2191,0.21918 7.7743,24.20079 17.7632,53.29247 l 18.1618,52.89396 -0.141,13 c -0.077,7.15 -0.4285,20.38628 -0.7799,29.41396 l -0.6389,16.41395 -6.1355,-12.91395 c -3.3745,-7.10268 -7.4736,-15.93936 -9.1091,-19.63708 -1.6355,-3.69771 -3.3817,-6.73521 -3.8805,-6.75 -1.5834,-0.0469 0.2363,47.74264 1.9437,51.04433 1.2267,2.3722 1.4631,10.86954 1.4631,52.57913 0,27.36231 -0.3773,49.32216 -0.8385,48.79966 -0.4613,-0.5225 -4.6238,-10.99911 -9.25,-23.28136 l -8.4115,-22.33137 -17.5,-8.82809 -17.5,-8.82809 -14.9051,-33.13399 c -15.0311,-33.41407 -16.1656,-35.2706 -18.8995,-30.92878 -0.78,1.23866 1.133,6.7295 8.1542,23.40533 5.0452,11.98285 8.9962,21.96395 8.7799,22.18021 -0.2163,0.21626 -10.4087,-6.1815 -22.6499,-14.21724 l -22.2566,-14.61045 -10.2998,6.26517 -10.2998,6.26517 -2.1981,9.04675 c -1.2089,4.97571 -2.484,9.59481 -2.8335,10.26467 -0.3494,0.66986 -13.6139,10.68236 -29.4767,22.25 l -28.8412,21.03207 -33.6369,-0.0441 -33.637,-0.0441 -29,-21.20873 -29,-21.20873 -2.5768,-9.99721 -2.5768,-9.9972 -10.2033,-6.3385 -10.2033,-6.33849 -22.7199,14.94569 c -12.4959,8.22013 -22.8185,14.87379 -22.9391,14.78591 -0.1206,-0.0879 4.1199,-10.43511 9.4233,-22.99385 9.2045,-21.79654 9.5571,-22.89664 7.7597,-24.2109 -1.0356,-0.75725 -2.3399,-1.22447 -2.8985,-1.03827 -0.5586,0.1862 -7.7324,15.19919 -15.9417,33.3622 l -14.9261,33.02365 -16.9369,8.40128 c -9.3153,4.6207 -17.3126,9.09453 -17.7718,9.94184 -0.4592,0.8473 -4.5163,11.1973 -9.0158,23 -4.4995,11.80269 -8.3189,21.60675 -8.4876,21.7868 -0.1687,0.18005 -0.4754,-21.86995 -0.6816,-49 z m 30.1812,-36.82736 c 12.81731,-30.525 23.8978,-56.90869 24.62311,-58.63042 1.31399,-3.1188 1.30229,-3.13922 -3.1446,-5.49829 -5.3465,-2.83631 -5.6291,-3.87129 -1.0571,-3.87129 2.5933,0 7.8788,2.7492 22.147,11.51959 10.3075,6.33577 18.9151,11.34532 19.128,11.13233 0.213,-0.21298 -3.1832,-8.08189 -7.5472,-17.48646 l -7.9344,-17.0992 3.7642,3.02506 c 3.0901,2.48326 5.0815,5.98037 11.1181,19.52531 4.0446,9.07513 7.9989,17.03644 8.7874,17.6918 1.884,1.56598 34.5305,21.6249 34.7835,21.37194 0.1073,-0.1073 -3.098,-11.21677 -7.1229,-24.68772 -14.9477,-50.02897 -16.3434,-55.08262 -14.8762,-53.86495 3.9303,3.26182 6.5596,10.38769 19.9701,54.12147 8.1197,26.47934 15.2335,47.97551 16.1825,48.89932 0.9315,0.90667 13.4557,9.79417 27.8317,19.75 l 26.1381,18.10151 29.4824,0 29.4824,0 26.8795,-18.60675 c 14.7837,-10.23371 27.2802,-18.98195 27.77,-19.44053 0.4898,-0.45858 7.4883,-22.37309 15.5523,-48.6989 11.6822,-38.13807 15.2532,-48.60644 17.5725,-51.51307 1.6009,-2.00638 3.0706,-3.4881 3.266,-3.29273 0.1954,0.19538 -4.8768,17.99818 -11.2716,39.56178 -6.3947,21.56361 -11.4879,39.31804 -11.3183,39.4543 0.1697,0.13626 8.2192,-4.62538 17.8878,-10.58143 l 17.5793,-10.82917 7.2586,-16.27675 c 4.9311,-11.05735 8.4122,-17.47336 10.8558,-20.00839 1.9784,-2.05241 3.7533,-3.57544 3.9442,-3.38453 0.1909,0.19091 -3.2034,7.94515 -7.5429,17.23164 -4.3395,9.28649 -7.7545,17.04653 -7.5888,17.24452 0.1656,0.198 8.8667,-4.89226 19.3358,-11.31168 16.7011,-10.24084 19.4969,-11.63347 22.8066,-11.35999 l 3.7721,0.31168 -4.75,2.84502 c -2.6125,1.56476 -4.75,3.0498 -4.75,3.30008 0,0.39029 46.0693,110.29016 48.5656,115.8549 0.5628,1.25469 1.1033,-10.85666 1.4504,-32.5 l 0.5532,-34.5 -15.6854,-42.95211 c -11.5024,-31.49774 -16.1785,-43.14615 -17.5346,-43.67972 -1.017,-0.40018 -7.2492,-0.75959 -13.8492,-0.7987 -9.4042,-0.0557 -13.0816,-0.49344 -17,-2.02351 l -5,-1.95241 28.3174,-0.0468 c 32.2872,-0.0533 29.1703,1.17986 24.7135,-9.77749 l -2.3465,-5.76926 -48.8422,-0.53933 c -39.3119,-0.43409 -49.6227,-0.82433 -52.8422,-2 -3.6116,-1.31884 1.0311,-1.48582 47.8146,-1.7197 l 51.8145,-0.25904 -0.6843,-2.24096 c -0.3764,-1.23254 -1.3124,-3.77508 -2.08,-5.6501 -1.3841,-3.38075 -0.879,-11.1046 0.6156,-9.41557 0.4014,0.45359 9.4575,22.4247 20.1247,48.8247 l 19.3949,48 0.603,-21 0.603,-21 -14.2166,-42 -14.2165,-42 -25.8864,-0.5 c -24.5072,-0.47336 -26.0988,-0.61988 -29.8717,-2.75 -2.1918,-1.2375 -3.5418,-2.26362 -3,-2.28026 0.5419,-0.0166 12.9881,-0.004 27.6582,0.0291 14.6701,0.0327 26.8941,-0.29845 27.1645,-0.73582 0.2703,-0.43737 -1.0874,-5.36419 -3.0171,-10.94849 l -3.5085,-10.15328 -42.5104,-24.77113 c -23.3807,-13.62408 -42.7387,-25.36584 -43.0176,-26.09275 -0.6359,-1.65706 13.9023,-60.29737 14.949,-60.29737 0.4219,0 0.7671,4.16307 0.7671,9.25126 0,8.07554 -0.6221,11.42854 -4.8955,26.38331 -2.6926,9.42263 -5.189,18.05642 -5.5476,19.18619 -0.5449,1.71675 0.5815,2.88647 6.8578,7.12164 8.8197,5.95146 7.4469,7.09794 13.7005,-11.4424 l 4.3848,-13 0.3014,6.38907 c 0.2441,5.17601 -0.3223,8.15375 -2.9832,15.68352 -1.8064,5.11196 -3.067,9.49355 -2.8013,9.73687 0.2657,0.24333 28.38,16.85708 62.4761,36.91946 l 61.993,36.47706 3.4374,9.0109 3.43729,9.01091 9.3197,4.62954 c 5.1258,2.54624 9.3196,4.43011 9.3196,4.18638 0,-0.24373 -8.6094,-16.32827 -19.132,-35.74343 -10.52259,-19.41515 -28.11129,-51.95028 -39.08599,-72.30028 -10.9747,-20.35 -20.1186,-37.16581 -20.3198,-37.36847 -0.3749,-0.37764 -20.5355,10.73001 -23.7436,13.0817 -1.6664,1.22155 -1.2997,2.49995 5.6784,19.79632 l 7.4599,18.49045 -4.2301,-4.62764 c -3.4234,-3.74517 -8.825,-14.5195 -28.326,-56.5 l -24.0959,-51.87236 0.6476,-7.5 0.6475,-7.5 18.1444,42 c 13.0487,30.20477 18.5757,41.96426 19.6802,41.87274 0.8447,-0.07 30.0868,-16.71999 64.9825,-37 l 63.44659,-36.87274 -36.3768,-0.26232 c -24.59509,-0.17736 -36.37689,-0.60272 -36.37689,-1.31333 0,-0.57805 7.8768,-54.19573 17.504,-119.15039 9.6272,-64.95466 17.38569,-118.2176 17.24119,-118.36209 -0.1445,-0.14449 -31.30869,37.67845 -69.25389,84.05098 -37.9452,46.37253 -69.124,84.19371 -69.2863,84.04706 -0.1623,-0.14665 0.2022,-2.23387 0.8098,-4.63827 0.7736,-3.06075 3.1855,-6.77054 8.0435,-12.37164 6.2884,-7.25039 8.5043,-10.58372 6.0112,-9.04295 -0.5118,0.3163 -12.3928,0.27225 -26.4022,-0.0979 l -25.4718,-0.67297 10.9023,-7.88952 c 5.9962,-4.33922 10.9022,-8.09361 10.9022,-8.34308 0,-0.24947 -17.0472,-0.45358 -37.8826,-0.45358 l -37.8827,0 -2.7141,5.54759 c -3.5031,7.15994 -12.1848,16.50183 -19.3635,20.83594 -5.8292,3.51933 -17.5359,7.61647 -21.7624,7.61647 -2.2806,0 -2.3947,0.30958 -2.3947,6.5 0,3.70816 0.4337,6.5 1.0097,6.5 0.5553,0 4.2678,-2.39336 8.25,-5.31859 3.9822,-2.92522 12.7528,-9.22422 19.4903,-13.99777 11.1896,-7.92785 12.25,-8.47131 12.25,-6.27786 0,1.94392 -3.9049,5.40673 -20.5,18.17907 l -20.5,15.77773 0,18.81871 c 0,10.35029 0.3375,18.80326 0.75,18.78438 0.4125,-0.0189 19.4096,-13.04682 42.2157,-28.95097 22.8062,-15.90415 41.5788,-28.80358 41.717,-28.6654 0.1381,0.13818 -0.098,1.57861 -0.5258,3.20097 -0.877,3.32957 -1.1367,3.52526 -51.7221,38.97247 l -32.4348,22.72832 0,15.90965 c 0,14.88179 0.1131,15.84243 1.75,14.86911 0.9625,-0.5723 14.3385,-9.3372 29.7243,-19.47756 15.3859,-10.14036 28.121,-18.2903 28.3004,-18.11097 0.1793,0.17933 -0.2591,1.74211 -0.9743,3.47285 -0.9913,2.3988 -8.0748,8.08019 -29.8004,23.90154 l -28.5,20.75475 -0.539,47.96478 c -0.4406,39.20857 -0.8164,48.78629 -2.0585,52.46479 l -1.5196,4.5 -2.1914,-8.0681 c -2.1015,-7.73673 -2.1915,-9.89436 -2.1915,-52.53403 l 0,-44.46592 -28.25,-20.52372 c -26.0693,-18.93943 -31.7408,-23.90491 -30.5715,-26.76569 0.1768,-0.43267 13.1465,7.65202 28.8215,17.96597 15.675,10.31395 28.849,18.78388 29.2754,18.82206 0.4265,0.0382 0.6515,-6.99916 0.5,-15.63855 l -0.2754,-15.70798 -40.9946,-28.8373 c -38.3225,-26.95758 -43.14,-30.86238 -42.2926,-34.28036 0.158,-0.63709 18.9622,11.85386 41.7872,27.75767 l 41.5,28.91601 0.2877,-18.82003 0.2877,-18.82003 -3.5684,-3.02563 c -1.9626,-1.6641 -10.9687,-8.6391 -20.0137,-15.5 -14.703,-11.15276 -19.1509,-15.65005 -17.3044,-17.49657 0.236,-0.23599 9.515,6.04577 20.6201,13.95946 l 20.191,14.38853 0,-6.75377 0,-6.75376 -5.75,-1.2594 c -14.4677,-3.16879 -29.5949,-14.74236 -35.6939,-27.30886 l -2.7908,-5.75 -38.3826,0 c -21.1105,0 -38.3635,0.3375 -38.3401,0.75 0.023,0.4125 4.795,4.125 10.6035,8.25 l 10.5609,7.5 -25.8195,0.79935 c -14.2007,0.43964 -26.0118,0.99167 -26.2469,1.22673 -0.235,0.23506 2.5741,3.78098 6.2426,7.87984 4.6153,5.15685 7.1125,8.92305 8.1067,12.22661 0.7902,2.62578 1.3004,4.91053 1.1337,5.07722 -0.1667,0.16669 -31.3127,-37.59239 -69.2133,-83.90908 -46.8568,-57.26157 -68.98525,-83.58626 -69.14435,-82.25642 -0.1288,1.07566 7.57505,54.38075 17.11945,118.45575 9.5445,64.075 17.041,116.84882 16.6589,117.27516 -0.382,0.42634 -16.7485,0.65134 -36.36985,0.5 -19.6214,-0.15134 -35.6751,0.0508 -35.6749,0.44916 2e-4,0.39838 1.3108,1.40193 2.9123,2.23012 1.6016,0.82819 30.4006,17.48975 63.99795,37.02568 33.5972,19.53593 61.4526,35.51988 61.9007,35.51988 0.4481,0 9.1115,-19.2375 19.2521,-42.75 l 18.4374,-42.75 0.2852,8.5 0.2852,8.5 -23.8439,51.09832 c -16.0587,34.41431 -25.0953,52.62542 -27.6765,55.77539 -2.1079,2.57239 -3.9685,4.54112 -4.1346,4.37494 -0.1662,-0.16617 3.0054,-8.4722 7.048,-18.45784 l 7.3501,-18.15571 -12.5322,-7.14204 c -6.8928,-3.92813 -12.8905,-6.77102 -13.3283,-6.31755 -0.4378,0.45347 -12.9326,23.32449 -27.7663,50.82449 -14.8337,27.5 -32.35815,59.9 -38.94305,72 -6.585,12.1 -11.8464,22.14974 -11.6921,22.33274 0.1543,0.18301 4.4555,-1.84199 9.5582,-4.5 l 9.2775,-4.83274 3.41265,-9 3.4127,-9 60.5285,-35.5 c 33.2908,-19.525 61.3747,-36.175 62.4089,-37 1.8228,-1.4542 1.7729,-1.79895 -1.6349,-11.29079 -3.2796,-9.135 -4.7638,-19.71301 -2.7651,-19.70693 0.4125,0.001 2.9448,6.31549 5.6273,14.03164 l 4.8772,14.02934 2.6228,-1.70397 c 1.4425,-0.93719 4.7521,-3.08893 7.3548,-4.78164 2.6026,-1.69271 4.7401,-3.55812 4.75,-4.14535 0.01,-0.58724 -2.4406,-9.84724 -5.4455,-20.5778 -5.2594,-18.7811 -5.4406,-19.83476 -4.8503,-28.19924 0.3372,-4.77902 0.7923,-8.51003 1.0112,-8.29112 1.0642,1.06419 15.2349,61.0976 14.5697,61.72403 -0.4219,0.39741 -19.4422,11.59213 -42.2672,24.87715 -22.825,13.28502 -41.9955,24.69011 -42.6011,25.34463 -2.1086,2.27887 -7.7347,19.75425 -6.6945,20.79437 0.6198,0.61983 10.9665,0.87926 27.6439,0.69314 14.6594,-0.1636 26.653,-0.0496 26.6526,0.25327 -5e-4,0.30291 -2.0379,1.54041 -4.5276,2.75 -4.2889,2.08372 -5.8257,2.19959 -29.25,2.20544 l -24.7233,0.006 -14.25,41.78745 -14.25,41.78745 0,21.20638 c 0,11.6635 0.3375,21.19481 0.75,21.18069 0.4125,-0.0141 9.5192,-21.79977 20.237,-48.41255 10.7179,-26.61279 19.7766,-48.20788 20.1306,-47.9891 1.729,1.06859 1.4374,6.18377 -0.6573,11.52884 l -2.3047,5.88073 52.1722,0.25888 c 47.1605,0.23401 51.788,0.39961 48.1722,1.72387 -3.26,1.19399 -13.0309,1.52442 -52.821,1.78626 l -48.8211,0.32128 -2.4014,5.43005 c -1.3208,2.98653 -2.6876,6.57021 -3.0374,7.96374 l -0.6359,2.53386 27.8584,0.0816 c 26.4264,0.0774 27.6785,0.16434 24.3584,1.69162 -2.4671,1.13493 -7.8345,1.78125 -18.1884,2.19019 -8.0786,0.31908 -14.8683,0.79535 -15.0882,1.05838 -0.2199,0.26303 -7.4476,19.75425 -16.0616,43.31383 l -15.6618,42.83555 0,35.11442 c 0,19.31292 0.3782,34.68691 0.8404,34.16441 0.4621,-0.5225 11.3272,-25.925 24.1446,-56.45 z m 151.6646,3.9914 c -13.2621,-19.54549 -21.4543,-32.51648 -21.0095,-33.2648 0.4011,-0.67463 4.1036,-5.3891 8.2279,-10.4766 l 7.4987,-9.25 56.0667,0.0558 56.0666,0.0558 4.5,5.66131 c 2.475,3.11373 6.16,7.73098 8.1889,10.26055 l 3.6888,4.59924 -21.689,31.93363 -21.6891,31.93364 -29.0556,0.2648 -29.0557,0.26479 -21.7387,-32.03819 z m 96.444,-2.2414 c 11.0856,-15.5375 20.3678,-28.79968 20.6271,-29.47151 0.2593,-0.67183 -2.5727,-4.60933 -6.2933,-8.75 l -6.7647,-7.52849 -53.5813,0.0649 -53.5814,0.0649 -6.5,7.55614 c -3.575,4.15588 -6.3836,7.96319 -6.2414,8.46069 0.1422,0.49749 9.3672,13.70897 20.5,29.35884 l 20.2414,28.45431 25.71901,0.0201 25.719,0.0201 20.1556,-28.25 z m -84.8188,2.94984 -14.2253,-20.19984 26.4047,-0.2662 c 14.5226,-0.14641 38.554,-0.14641 53.4032,0 l 26.9985,0.2662 -14.5439,20.25 -14.5439,20.25 -24.634,-0.0502 -24.6341,-0.0502 -14.2252,-20.19984 z m -18.407,-26.44165 c -4.7666,-5.75196 -10.1791,-5.25819 57.6379,-5.25819 l 61.7507,0 -2.5062,3.25 -2.5062,3.25 -56.4596,0.25819 c -52.835,0.24161 -56.5531,0.14531 -57.9166,-1.5 z m 0.1322,-10.06683 c 0,-0.16975 1.4253,-2.08225 3.1674,-4.25 l 3.1674,-3.94136 51.2598,0 51.25981,0 3.0728,3.72784 c 1.6901,2.05032 3.0728,3.96282 3.0728,4.25 0,0.28719 -25.875,0.52216 -57.5,0.52216 -31.625,0 -57.5,-0.13889 -57.5,-0.30864 z m 10.2638,-129.44136 c -1.6099,-2.8875 -7.1404,-13.24646 -12.2901,-23.01992 l -9.3629,-17.76991 -21.5554,-6.90486 c -11.8554,-3.79767 -28.1506,-9.00288 -36.2115,-11.56714 -14.901,-4.74018 -15.7746,-5.3023 -15.8302,-10.18663 -0.012,-1.02314 21.6873,5.94542 69.6207,22.35852 l 7.1344,2.44292 3.5397,7.69851 c 1.9469,4.23418 7.1466,15.46101 11.5549,24.94851 7.7019,16.57572 9.5108,22.95933 3.4004,12 z m 98.0984,-14.5 c 5.0798,-10.8625 10.5639,-22.19118 12.1869,-25.17485 l 2.9509,-5.42485 37.7936,-12.61493 c 20.7864,-6.9382 37.9345,-12.47395 38.1068,-12.30164 0.1723,0.1723 0.091,1.47648 -0.1808,2.89817 -0.6256,3.27249 0.2392,2.93339 -39.2196,15.37846 -19.0416,6.00563 -33.1509,10.97934 -34.0718,12.01078 -0.8646,0.96826 -6.0014,10.2471 -11.4152,20.61966 -10.2611,19.65973 -13.0619,24.3592 -14.5179,24.3592 -0.4778,0 3.2874,-8.8875 8.3671,-19.75 z m -117.9274,4.23902 c -9.8571,-5.14618 -12.0248,-5.8275 -32.7453,-10.29236 l -22.1895,-4.78137 -6.8175,-9.95765 c -9.109,-13.30464 -8.8948,-12.84396 -6.6295,-14.25866 1.7204,-1.07441 2.6123,-0.26385 8.8694,8.06063 l 6.9566,9.25515 22.3105,5.33885 c 21.9037,5.24151 22.486,5.44788 31.9344,11.31803 5.494,3.41335 10.0979,7.01963 10.7285,8.40377 1.6849,3.69779 -0.4296,3.17225 -12.4176,-3.08639 z m 120.5652,5.01263 c 0,-2.22643 3.1011,-5.04868 11.1637,-10.15985 8.9615,-5.68108 9.7148,-5.95059 31.7319,-11.35298 l 22.5526,-5.53377 5.1486,-6.6673 c 2.8318,-3.66702 6.0786,-7.93191 7.2151,-9.47753 1.9157,-2.60541 2.1873,-2.69105 3.7267,-1.17508 1.5439,1.52055 1.1526,2.3966 -5.5844,12.5 -3.9845,5.97567 -7.3916,11.03975 -7.5714,11.2535 -0.1797,0.21375 -10.2887,2.58185 -22.4645,5.26246 -19.5188,4.29724 -23.2782,5.45262 -31.778,9.76633 -9.8913,5.01988 -14.1403,6.69788 -14.1403,5.58422 z m -149.5,-26.99207 -12,-3.31336 -8.1914,-8.78832 c -4.5053,-4.83357 -7.9998,-9.09841 -7.7656,-9.4774 1.2352,-1.99864 6.0723,-0.89581 28.457,6.48797 18.0818,5.96444 24.5813,8.52236 24.8104,9.7643 0.3412,1.84963 -9.1642,8.88272 -11.797,8.7287 -0.8324,-0.0487 -6.9134,-1.57954 -13.5134,-3.40189 z m 170.9543,-0.29184 c -3.3827,-2.49245 -4.924,-4.2945 -4.6766,-5.46774 0.2029,-0.9625 0.5254,-1.75 0.7165,-1.75 0.1912,0 10.7688,-3.375 23.5058,-7.5 21.7431,-7.04168 28.2641,-8.5426 29.3265,-6.75 0.2445,0.4125 -3.2776,4.7195 -7.8269,9.57112 l -8.2714,8.82111 -12.6353,3.42889 c -6.9494,1.88588 -13.1883,3.41436 -13.8641,3.39662 -0.6758,-0.0177 -3.4993,-1.70524 -6.2745,-3.75 z m -261.9228,-203.79423 c -17.0326,-2.95748 -31.4419,-5.5589 -32.0205,-5.78093 -0.6119,-0.2348 -2.4913,-14.91888 -4.492,-35.09694 l -3.4399,-34.69324 -11.1803,-14.59324 c -8.865,-11.57122 -11.2931,-15.4348 -11.7253,-18.65706 -0.49659,-3.7026 -0.21579,-5.58723 0.6733,-4.51877 0.1907,0.22917 20.94741,26.29167 46.12621,57.91667 25.1787,31.625 46.4674,58.2875 47.3082,59.25 0.8409,0.9625 1.1216,1.70517 0.6238,1.65037 -0.4977,-0.0548 -14.8408,-2.51938 -31.8735,-5.47686 z m 342.0519,4.44158 c 1.0356,-1.67561 91.1279,-114.81111 93.0338,-116.82938 1.1904,-1.26054 1.3828,-0.89756 1.3828,2.60883 0,3.65277 -1.1782,5.61692 -11.4171,19.03292 l -11.4171,14.95981 -1.5981,15.43137 c -4.5394,43.83388 -5.6712,54.36706 -5.8605,54.54408 -0.1139,0.10654 -13.9322,2.51782 -30.7072,5.35839 -16.775,2.84057 -31.3438,5.40734 -32.3752,5.70392 -1.3878,0.39907 -1.6585,0.18854 -1.0414,-0.80994 z m -351.1148,416.88491 13.857,-7.25 14.3372,-31.43779 c 7.8855,-17.29079 14.3372,-31.7103 14.3372,-32.04335 0,-0.73949 -17.4922,-11.01886 -18.7506,-11.01886 -0.4936,0 -9.4803,20.025 -19.9703,44.5 -10.4901,24.475 -18.7566,44.5 -18.3701,44.5 0.3865,0 6.9383,-3.2625 14.55961,-7.25 z m 406.1335,5.6553 c -0.3366,-0.87708 -8.9702,-21.09429 -19.1857,-44.92714 l -18.5738,-43.33244 -9.1553,5.37928 c -5.0354,2.9586 -9.3203,5.87405 -9.5219,6.47879 -0.2015,0.60473 6.0768,15.18753 13.9519,32.40622 l 14.3183,31.3067 13.5322,7.12027 c 7.4427,3.91614 13.9179,7.12988 14.3892,7.14164 0.4714,0.0118 0.5816,-0.69623 0.2451,-1.57332 z m -332.6523,-57.4053 c 0,-1.12911 -17.2647,-10.08166 -17.9833,-9.32315 -0.6123,0.64628 -6.1948,13.47185 -12.698,29.17313 -0.3076,0.74249 6.4695,-3.30751 15.0602,-9 8.5907,-5.69249 15.6201,-10.57498 15.6211,-10.84998 z m 275.0502,19.63138 c 0,-0.63212 -12.0265,-28.99126 -12.492,-29.45671 -0.6554,-0.65544 -17.5417,9.2015 -17.2544,10.07181 0.2848,0.8627 27.8701,19.59431 28.9964,19.68988 0.4125,0.035 0.75,-0.10224 0.75,-0.30498 z m -365.0883,-59.78291 c 6.0986,-16.85835 11.0883,-30.93978 11.0883,-31.29207 0,-0.35229 -3.4836,-0.5091 -7.7413,-0.34846 l -7.7413,0.29206 -3.6309,8.5 -3.6309,8.5 -0.4369,23.25916 c -0.2404,12.79253 -0.1126,22.91753 0.2838,22.5 0.3964,-0.41754 5.7106,-14.55235 11.8092,-31.41069 z m 433.2115,-21.93848 -3.9136,-9.40999 -7.6048,-0.29206 c -5.6776,-0.21806 -7.6048,0.0334 -7.6048,0.99242 0,0.70647 5.0625,15.22885 11.25,32.27195 l 11.25,30.98746 0.2684,-22.56989 0.2684,-22.56989 z m -212.6232,-348.89646 c 24.0831,-3.91304 41.353,-27.68442 37.6061,-51.76353 -3.8547,-24.77199 -28.0784,-42.61332 -52.0427,-38.33066 -19.8969,3.55578 -34.7521,18.44929 -38.0798,38.17806 -3.2503,19.27005 7.5556,39.64451 25.4729,48.02905 9.501,4.44603 16.9839,5.52158 27.0435,3.88708 z m -21,-16.86357 c -6.984,-3.31562 -13.6572,-10.08675 -16.6855,-16.93026 -3.2054,-7.24385 -3.5893,-19.17949 -0.8504,-26.44068 2.7271,-7.23 9.2434,-14.04912 16.8156,-17.59713 7.5848,-3.5539 19.1899,-3.72246 26.5344,-0.38541 2.6477,1.20303 4.5574,2.60254 4.2437,3.11001 -0.3136,0.50748 -0.01,1.1506 0.686,1.42915 0.6909,0.27856 -0.7688,0.54639 -3.2438,0.59518 -14.0076,0.27616 -26.5198,14.96387 -24.611,28.89008 1.6758,12.22621 14.8867,22.47848 26.8908,20.8684 3.076,-0.41258 3.6061,-0.25669 2.7274,0.80205 -0.8011,0.96523 -0.7477,1.43997 0.2011,1.788 0.7105,0.26061 -1.6333,1.87901 -5.2083,3.59645 -5.4984,2.64148 -7.6556,3.12262 -14,3.12262 -6.1737,0 -8.561,-0.50371 -13.5,-2.84846 z"
       id="path3739"
       inkscape:connector-curvature="0"
       sodipodi:nodetypes="csssssscssscssscssscssssscscssscccssssscccscscssscccsscsscscsssscssscsscsscsssscccssssscccscscccccccccscsssscscscccssssscscssscssssscccsssscssscsscscsscsssscsssscsscssscsssscccccssccsscsssssssscsscscccssssssscsscccssscssssscsssscssscssssssssscscsssscsssssscsscsscscscscssscccsscscccsscscscssssssssssssssscccsssscsssscscccssscscsscssssssssssscccscssscssscsccssssscssscsscccsscccccccccscccscscccccccsscccccccsscccsssscccsssssscsscscssssscsccssssssscssscssssssscssssssssscsssssssssssscscsssscssssssssssscscsssscsssssssscssscscscssscsssssssscccsssccsssccccsssssssssssscssssssss" />
    <g
       id="g6086"
       transform="translate(-17.27507,8.5714286)">
      <text
         sodipodi:linespacing="125%"
         id="text5432"
         y="665.21692"
         x="658.81543"
         style="font-size:40px;font-style:normal;font-weight:normal;line-height:125%;letter-spacing:0px;word-spacing:0px;fill:#000000;fill-opacity:1;stroke:none;font-family:Sans"
         xml:space="preserve"><tspan
           rotate="0 0 0"
           style="font-size:400px;font-style:normal;font-variant:normal;font-weight:normal;font-stretch:normal;fill:#ffffca;fill-opacity:1;font-family:Ostrich Sans;-inkscape-font-specification:Ostrich Sans"
           y="665.21692"
           x="658.81543"
           id="tspan5434"
           sodipodi:role="line">JoBS</tspan></text>
      <text
         sodipodi:linespacing="125%"
         id="text5432-6"
         y="665.21692"
         x="-191.63457"
         style="font-size:40px;font-style:normal;font-weight:normal;line-height:125%;letter-spacing:0px;word-spacing:0px;fill:#000000;fill-opacity:1;stroke:none;font-family:Sans"
         xml:space="preserve"><tspan
           style="font-size:400px;font-style:normal;font-variant:normal;font-weight:normal;font-stretch:normal;fill:#ffffff;fill-opacity:1;font-family:Ostrich Sans;-inkscape-font-specification:Ostrich Sans"
           y="665.21692"
           x="-191.63457"
           id="tspan5434-2"
           sodipodi:role="line">Zephyr </tspan></text>
    </g>
  </g>
</svg>
