<?xml version="1.0" encoding="UTF-8" standalone="no"?>
<!-- Created with Inkscape (http://www.inkscape.org/) -->

<svg
   xmlns:dc="http://purl.org/dc/elements/1.1/"
   xmlns:cc="http://creativecommons.org/ns#"
   xmlns:rdf="http://www.w3.org/1999/02/22-rdf-syntax-ns#"
   xmlns:svg="http://www.w3.org/2000/svg"
   xmlns="http://www.w3.org/2000/svg"
   xmlns:xlink="http://www.w3.org/1999/xlink"
   xmlns:sodipodi="http://sodipodi.sourceforge.net/DTD/sodipodi-0.dtd"
   xmlns:inkscape="http://www.inkscape.org/namespaces/inkscape"
   width="676.61517"
   height="696.57111"
   id="svg2"
   version="1.1"
   inkscape:version="0.48.4 r9939"
   sodipodi:docname="logo_color.svg">
  <defs
     id="defs4">
    <linearGradient
       id="linearGradient3867">
      <stop
         id="stop3869"
         offset="0"
         style="stop-color:#f27937;stop-opacity:1;" />
      <stop
         id="stop3871"
         offset="1"
         style="stop-color:#ee495e;stop-opacity:1;" />
    </linearGradient>
    <linearGradient
       id="linearGradient3789">
      <stop
         style="stop-color:#f27937;stop-opacity:1;"
         offset="0"
         id="stop3791" />
      <stop
         style="stop-color:#ee495e;stop-opacity:1;"
         offset="1"
         id="stop3793" />
    </linearGradient>
    <linearGradient
       inkscape:collect="always"
       xlink:href="#linearGradient3867"
       id="linearGradient5323"
       x1="70.851608"
       y1="182.72443"
       x2="745.44641"
       y2="877.70935"
       gradientUnits="userSpaceOnUse" />
  </defs>
  <sodipodi:namedview
     id="base"
     pagecolor="#ffffff"
     bordercolor="#666666"
     borderopacity="1.0"
     inkscape:pageopacity="0.0"
     inkscape:pageshadow="2"
     inkscape:zoom="0.49497475"
     inkscape:cx="855.71167"
     inkscape:cy="65.535022"
     inkscape:document-units="px"
     inkscape:current-layer="layer1"
     showgrid="false"
     fit-margin-top="0"
     fit-margin-left="0"
     fit-margin-right="0"
     fit-margin-bottom="0"
     inkscape:window-width="1920"
     inkscape:window-height="1015"
     inkscape:window-x="0"
     inkscape:window-y="26"
     inkscape:window-maximized="1" />
  <metadata
     id="metadata7">
    <rdf:RDF>
      <cc:Work
         rdf:about="">
        <dc:format>image/svg+xml</dc:format>
        <dc:type
           rdf:resource="http://purl.org/dc/dcmitype/StillImage" />
        <dc:title></dc:title>
      </cc:Work>
    </rdf:RDF>
  </metadata>
  <g
     inkscape:label="Layer 1"
     inkscape:groupmode="layer"
     id="layer1"
     transform="translate(-64.790688,-179.91107)">
    <path
       style="fill:url(#linearGradient5323);fill-opacity:1.0;fill-rule:nonzero"
       d="m 170.05818,827.48112 c -0.32589,-42.88706 -0.17435,-49.71905 1.16069,-52.32736 1.20849,-2.36105 1.64202,-8.16513 2.03553,-27.25123 0.275,-13.33818 0.23759,-24.25068 -0.0831,-24.25 -0.32071,6.8e-4 -4.57009,8.55123 -9.44305,19.00123 -4.87297,10.45 -9.15062,19 -9.5059,19 -0.35528,0 -0.93938,-12.72388 -1.29801,-28.27528 l -0.65204,-28.27528 8.0772,-23.47472 c 21.00598,-61.04967 28.69999,-83.97472 28.18318,-83.97472 -0.3091,0 -12.32779,6.59617 -26.70821,14.65814 l -26.14621,14.65815 -13.46193,32.59185 c -12.74471,30.85543 -13.47789,32.34569 -13.76144,27.97129 -0.24626,-3.7992 0.8768,-7.5054 6.3177,-20.84898 3.63945,-8.92562 6.38919,-16.45641 6.11051,-16.73508 -0.27867,-0.27867 -5.98659,2.03841 -12.68426,5.14907 -6.69766,3.11067 -12.359585,5.47375 -12.582035,5.2513 -0.22245,-0.22245 7.192595,-14.98249 16.477875,-32.80009 62.9802,-120.85333 64.53345,-123.86931 64.02755,-124.32369 -0.20231,-0.1817 -25.11784,-15.50189 -55.36783,-34.04487 -30.250005,-18.54297 -55.427505,-34.12233 -55.950005,-34.62079 -0.568551,-0.5424 16.596663,-0.9063 42.750005,-0.9063 34.99551,0 43.7,-0.25672 43.7,-1.28883 0,-1.06296 -11.60669,-78.45226 -34.37551,-229.20374 -1.90998,-12.64591 -3.35698,-23.10827 -3.21556,-23.2497 0.14142,-0.14142 29.17604,35.06774 64.52137,78.24257 l 64.26423,78.4997 19.15274,-0.0318 c 15.2531,-0.0253 18.8329,-0.27984 17.5819,-1.25 -0.86396,-0.67001 -6.39848,-4.8182 -12.29894,-9.2182 l -10.7281,-8 47.79894,-0.25929 47.79893,-0.25929 -0.34738,-8.36316 c -0.43737,-10.52975 1.05095,-17.75757 5.47922,-26.60917 8.60068,-17.19173 26.50846,-28.00909 46.36816,-28.00909 14.92668,0 25.80004,4.57344 36.59227,15.39105 11.29931,11.32589 16.20533,24.279 15.1897,40.10463 l -0.48035,7.48493 47.09919,0.25969 47.09919,0.2597 -11.75,8.87233 c -6.4625,4.87978 -11.75064,9.15478 -11.75142,9.5 -7.9e-4,0.34522 8.50891,0.40267 18.91043,0.12767 l 18.91186,-0.5 64.08956,-78.33253 c 35.24926,-43.08289 64.08957,-77.55862 64.08957,-76.61273 0,1.84226 -36.69233,246.42934 -37.53209,250.18485 l -0.50079,2.23958 44.09216,0.26042 44.09216,0.26041 -51.32572,31.45654 c -28.22915,17.3011 -53.63988,32.92151 -56.4683,34.71202 l -5.14259,3.25547 18.3163,35.28799 c 10.07396,19.40839 28.42237,54.63798 40.77425,78.28798 12.35188,23.65 22.14507,43.12205 21.76265,43.27121 -0.38242,0.14917 -6.29167,-2.38286 -13.13167,-5.62673 -6.84,-3.24387 -12.5501,-5.80217 -12.68911,-5.68512 -0.13902,0.11705 2.62803,7.37408 6.14899,16.12673 4.04113,10.0457 6.57133,17.87154 6.86162,21.22277 0.25293,2.91988 0.11765,4.94488 -0.30061,4.5 -0.41826,-0.44487 -6.60632,-14.98386 -13.75124,-32.30886 l -12.99076,-31.5 -26.23182,-14.79247 c -14.4275,-8.13586 -26.41115,-14.61314 -26.63033,-14.39396 -0.21918,0.21918 7.77426,24.20079 17.76321,53.29247 l 18.16171,52.89396 -0.14094,13 c -0.0775,7.15 -0.42847,20.38628 -0.77988,29.41396 l -0.63894,16.41395 -6.13548,-12.91395 c -3.37452,-7.10268 -7.47363,-15.93936 -9.10913,-19.63708 -1.63551,-3.69771 -3.38171,-6.73521 -3.88045,-6.75 -1.58344,-0.0469 0.23625,47.74264 1.94362,51.04433 1.22672,2.3722 1.46318,10.86954 1.46318,52.57913 0,27.36231 -0.37736,49.32216 -0.83858,48.79966 -0.46122,-0.5225 -4.62372,-10.99911 -9.25,-23.28136 l -8.41142,-22.33137 -17.5,-8.82809 -17.5,-8.82809 -14.90514,-33.13399 c -15.03113,-33.41407 -16.16559,-35.2706 -18.8995,-30.92878 -0.77995,1.23866 1.133,6.7295 8.15416,23.40533 5.04523,11.98285 8.99621,21.96395 8.77995,22.18021 -0.21626,0.21626 -10.4087,-6.1815 -22.64986,-14.21724 l -22.25665,-14.61045 -10.29979,6.26517 -10.2998,6.26517 -2.19806,9.04675 c -1.20894,4.97571 -2.48401,9.59481 -2.8335,10.26467 -0.34948,0.66986 -13.61399,10.68236 -29.4767,22.25 l -28.84127,21.03207 -33.63692,-0.0441 -33.63692,-0.0441 -29,-21.20873 -29,-21.20873 -2.57684,-9.99721 -2.57684,-9.9972 -10.20326,-6.3385 -10.20326,-6.33849 -22.7199,14.94569 c -12.49595,8.22013 -22.81856,14.87379 -22.93915,14.78591 -0.12059,-0.0879 4.11992,-10.43511 9.42335,-22.99385 9.20445,-21.79654 9.55704,-22.89664 7.75968,-24.2109 -1.0356,-0.75725 -2.33994,-1.22447 -2.89855,-1.03827 -0.5586,0.1862 -7.73236,15.19919 -15.9417,33.3622 l -14.92606,33.02365 -16.93692,8.40128 c -9.3153,4.6207 -17.31262,9.09453 -17.77182,9.94184 -0.45921,0.8473 -4.51632,11.1973 -9.0158,23 -4.49949,11.80269 -8.31891,21.60675 -8.4876,21.7868 -0.1687,0.18005 -0.47539,-21.86995 -0.68155,-49 z m 30.18116,-36.82736 c 12.81736,-30.525 23.89777,-56.90869 24.62313,-58.63042 1.31395,-3.1188 1.30227,-3.13922 -3.14461,-5.49829 -5.3465,-2.83631 -5.62913,-3.87129 -1.05714,-3.87129 2.59338,0 7.87888,2.7492 22.14708,11.51959 10.30742,6.33577 18.91502,11.34532 19.12801,11.13233 0.21299,-0.21298 -3.18326,-8.08189 -7.54722,-17.48646 l -7.93447,-17.0992 3.76429,3.02506 c 3.09008,2.48326 5.08141,5.98037 11.11809,19.52531 4.04458,9.07513 7.99889,17.03644 8.78734,17.6918 1.88401,1.56598 34.53056,21.6249 34.78353,21.37194 0.10729,-0.1073 -3.098,-11.21677 -7.12288,-24.68772 -14.94772,-50.02897 -16.34342,-55.08262 -14.87622,-53.86495 3.93025,3.26182 6.55961,10.38769 19.97014,54.12147 8.11963,26.47934 15.23346,47.97551 16.1825,48.89932 0.93142,0.90667 13.45564,9.79417 27.83161,19.75 l 26.13812,18.10151 29.48242,0 29.48242,0 26.87946,-18.60675 c 14.7837,-10.23371 27.2802,-18.98195 27.76999,-19.44053 0.4898,-0.45858 7.48833,-22.37309 15.55229,-48.6989 11.68223,-38.13807 15.25328,-48.60644 17.57253,-51.51307 1.60093,-2.00638 3.07063,-3.4881 3.26601,-3.29273 0.19537,0.19538 -4.87683,17.99818 -11.27156,39.56178 -6.39473,21.56361 -11.48796,39.31804 -11.31829,39.4543 0.16967,0.13626 8.21916,-4.62538 17.88775,-10.58143 l 17.57926,-10.82917 7.25868,-16.27675 c 4.93107,-11.05735 8.41215,-17.47336 10.85577,-20.00839 1.97839,-2.05241 3.75328,-3.57544 3.94419,-3.38453 0.19092,0.19091 -3.20339,7.94515 -7.5429,17.23164 -4.33951,9.28649 -7.75447,17.04653 -7.58881,17.24452 0.16566,0.198 8.86676,-4.89226 19.33577,-11.31168 16.7011,-10.24084 19.49699,-11.63347 22.80667,-11.35999 l 3.77211,0.31168 -4.75,2.84502 c -2.6125,1.56476 -4.75,3.0498 -4.75,3.30008 0,0.39029 46.06923,110.29016 48.56553,115.8549 0.56285,1.25469 1.10335,-10.85666 1.45041,-32.5 l 0.55323,-34.5 -15.68538,-42.95211 c -11.50244,-31.49774 -16.17852,-43.14615 -17.53458,-43.67972 -1.01707,-0.40018 -7.24921,-0.75959 -13.84921,-0.7987 -9.40419,-0.0557 -13.08159,-0.49344 -17,-2.02351 l -5,-1.95241 28.31739,-0.0468 c 32.28722,-0.0533 29.17023,1.17986 24.71352,-9.77749 l -2.34656,-5.76926 -48.84218,-0.53933 c -39.31188,-0.43409 -49.62267,-0.82433 -52.84217,-2 -3.61161,-1.31884 1.03109,-1.48582 47.81452,-1.7197 l 51.81452,-0.25904 -0.68431,-2.24096 c -0.37637,-1.23254 -1.31236,-3.77508 -2.07998,-5.6501 -1.38405,-3.38075 -0.87902,-11.1046 0.61565,-9.41557 0.40139,0.45359 9.4575,22.4247 20.1247,48.8247 l 19.3949,48 0.60296,-21 0.60296,-21 -14.21653,-42 -14.21653,-42 -25.88643,-0.5 c -24.50719,-0.47336 -26.09876,-0.61988 -29.87162,-2.75 -2.19186,-1.2375 -3.54186,-2.26362 -3,-2.28026 0.54185,-0.0166 12.98803,-0.004 27.65816,0.0291 14.67014,0.0327 26.89414,-0.29845 27.16445,-0.73582 0.27031,-0.43737 -1.08737,-5.36419 -3.01705,-10.94849 l -3.50853,-10.15328 -42.5104,-24.77113 c -23.38072,-13.62408 -42.73863,-25.36584 -43.01757,-26.09275 -0.63588,-1.65706 13.90227,-60.29737 14.94896,-60.29737 0.42194,0 0.76717,4.16307 0.76717,9.25126 0,8.07554 -0.62217,11.42854 -4.89558,26.38331 -2.69256,9.42263 -5.18896,18.05642 -5.54753,19.18619 -0.54488,1.71675 0.5815,2.88647 6.85774,7.12164 8.81969,5.95146 7.44695,7.09794 13.70053,-11.4424 l 4.38484,-13 0.30133,6.38907 c 0.24411,5.17601 -0.32228,8.15375 -2.98314,15.68352 -1.80646,5.11196 -3.06706,9.49355 -2.80133,9.73687 0.26573,0.24333 28.37999,16.85708 62.47614,36.91946 l 61.993,36.47706 3.43733,9.0109 3.43734,9.01091 9.31967,4.62954 c 5.12581,2.54624 9.31966,4.43011 9.31966,4.18638 0,-0.24373 -8.6094,-16.32827 -19.13201,-35.74343 -10.5226,-19.41515 -28.1113,-51.95028 -39.086,-72.30028 -10.9747,-20.35 -20.11861,-37.16581 -20.3198,-37.36847 -0.3749,-0.37764 -20.53556,10.73001 -23.7436,13.0817 -1.66638,1.22155 -1.29968,2.49995 5.67841,19.79632 l 7.45983,18.49045 -4.23005,-4.62764 c -3.42339,-3.74517 -8.82504,-14.5195 -28.32597,-56.5 l -24.09593,-51.87236 0.64756,-7.5 0.64756,-7.5 18.14436,42 c 13.04873,30.20477 18.57569,41.96426 19.6802,41.87274 0.84471,-0.07 30.08683,-16.71999 64.98248,-37 l 63.44665,-36.87274 -36.37685,-0.26232 c -24.59512,-0.17736 -36.37684,-0.60272 -36.37684,-1.31333 0,-0.57805 7.87678,-54.19573 17.50395,-119.15039 9.62718,-64.95466 17.38574,-118.2176 17.24125,-118.36209 -0.14449,-0.14449 -31.30876,37.67845 -69.25395,84.05098 -37.94519,46.37253 -69.12401,84.19371 -69.28628,84.04706 -0.16226,-0.14665 0.20216,-2.23387 0.80983,-4.63827 0.77355,-3.06075 3.18548,-6.77054 8.04346,-12.37164 6.28845,-7.25039 8.50426,-10.58372 6.01123,-9.04295 -0.51178,0.3163 -12.39279,0.27225 -26.40226,-0.0979 l -25.47175,-0.67297 10.90226,-7.88952 c 5.99624,-4.33922 10.90226,-8.09361 10.90226,-8.34308 0,-0.24947 -17.04719,-0.45358 -37.88265,-0.45358 l -37.88265,0 -2.71418,5.54759 c -3.50303,7.15994 -12.18474,16.50183 -19.36348,20.83594 -5.82919,3.51933 -17.53586,7.61647 -21.76238,7.61647 -2.28061,0 -2.39466,0.30958 -2.39466,6.5 0,3.70816 0.43367,6.5 1.00967,6.5 0.55531,0 4.26781,-2.39336 8.25,-5.31859 3.98218,-2.92522 12.75283,-9.22422 19.49033,-13.99777 11.18955,-7.92785 12.25,-8.47131 12.25,-6.27786 0,1.94392 -3.90491,5.40673 -20.5,18.17907 l -20.5,15.77773 0,18.81871 c 0,10.35029 0.3375,18.80326 0.75,18.78438 0.4125,-0.0189 19.40956,-13.04682 42.2157,-28.95097 22.80613,-15.90415 41.57875,-28.80358 41.71693,-28.6654 0.13818,0.13818 -0.0984,1.57861 -0.52573,3.20097 -0.87702,3.32957 -1.13673,3.52526 -51.72215,38.97247 l -32.43475,22.72832 0,15.90965 c 0,14.88179 0.11306,15.84243 1.75,14.86911 0.9625,-0.5723 14.33843,-9.3372 29.72429,-19.47756 15.38585,-10.14036 28.121,-18.2903 28.30033,-18.11097 0.17933,0.17933 -0.2591,1.74211 -0.97428,3.47285 -0.99125,2.3988 -8.07478,8.08019 -29.80034,23.90154 l -28.5,20.75475 -0.53902,47.96478 c -0.44062,39.20857 -0.81642,48.78629 -2.05856,52.46479 l -1.51954,4.5 -2.19144,-8.0681 c -2.10144,-7.73673 -2.19144,-9.89436 -2.19144,-52.53403 l 0,-44.46592 -28.25,-20.52372 c -26.06931,-18.93943 -31.74082,-23.90491 -30.57153,-26.76569 0.17684,-0.43267 13.14653,7.65202 28.82153,17.96597 15.675,10.31395 28.84893,18.78388 29.27539,18.82206 0.42647,0.0382 0.65147,-6.99916 0.5,-15.63855 L 397.7544,424.2378 356.75972,395.4005 c -38.32248,-26.95758 -43.13993,-30.86238 -42.29251,-34.28036 0.15796,-0.63709 18.96219,11.85386 41.78719,27.75767 l 41.5,28.91601 0.28767,-18.82003 0.28767,-18.82003 -3.56835,-3.02563 c -1.96259,-1.6641 -10.96876,-8.6391 -20.01371,-15.5 -14.70305,-11.15276 -19.15094,-15.65005 -17.30441,-17.49657 0.23598,-0.23599 9.51503,6.04577 20.62009,13.95946 l 20.19104,14.38853 0,-6.75377 0,-6.75376 -5.75,-1.2594 c -14.46769,-3.16879 -29.59489,-14.74236 -35.69397,-27.30886 l -2.79073,-5.75 -38.38265,0 c -21.11046,0 -38.36347,0.3375 -38.34004,0.75 0.0234,0.4125 4.795,4.125 10.60347,8.25 l 10.56085,7.5 -25.81948,0.79935 c -14.20072,0.43964 -26.0118,0.99167 -26.24686,1.22673 -0.23506,0.23506 2.57408,3.78098 6.24253,7.87984 4.61537,5.15685 7.1125,8.92305 8.10673,12.22661 0.79024,2.62578 1.30042,4.91053 1.13373,5.07722 -0.16669,0.16669 -31.31269,-37.59239 -69.21333,-83.90908 -46.85676,-57.26157 -68.98516,-83.58626 -69.14433,-82.25642 -0.12874,1.07566 7.57502,54.38075 17.11946,118.45575 9.54443,64.075 17.04095,116.84882 16.65891,117.27516 -0.38204,0.42634 -16.74849,0.65134 -36.36988,0.5 -19.62139,-0.15134 -35.675074,0.0508 -35.67484,0.44916 2.34e-4,0.39838 1.310779,1.40193 2.912322,2.23012 1.601543,0.82819 30.400578,17.48975 63.997838,37.02568 33.59727,19.53593 61.45258,35.51988 61.90069,35.51988 0.44811,0 9.11158,-19.2375 19.25216,-42.75 l 18.43742,-42.75 0.28518,8.5 0.28517,8.5 -23.84393,51.09832 c -16.0587,34.41431 -25.09528,52.62542 -27.67645,55.77539 -2.10788,2.57239 -3.96847,4.54112 -4.13465,4.37494 -0.16617,-0.16617 3.00542,-8.4722 7.048,-18.45784 l 7.35013,-18.15571 -12.53223,-7.14204 c -6.89273,-3.92813 -12.89043,-6.77102 -13.32823,-6.31755 -0.4378,0.45347 -12.93266,23.32449 -27.76635,50.82449 -14.83369,27.5 -32.35804,59.9 -38.94299,72 -6.58496,12.1 -11.84639,22.14974 -11.69207,22.33274 0.15431,0.18301 4.45548,-1.84199 9.55814,-4.5 l 9.27756,-4.83274 3.41262,-9 3.41261,-9 60.52859,-35.5 c 33.29072,-19.525 61.37471,-36.175 62.40885,-37 1.82286,-1.4542 1.77295,-1.79895 -1.63484,-11.29079 -3.27967,-9.135 -4.76389,-19.71301 -2.76511,-19.70693 0.4125,0.001 2.94476,6.31549 5.62725,14.03164 l 4.87725,14.02934 2.62275,-1.70397 c 1.44251,-0.93719 4.75216,-3.08893 7.35478,-4.78164 2.60262,-1.69271 4.74012,-3.55812 4.75,-4.14535 0.01,-0.58724 -2.44059,-9.84724 -5.4455,-20.5778 -5.25934,-18.7811 -5.44057,-19.83476 -4.85028,-28.19924 0.33726,-4.77902 0.79232,-8.51003 1.01123,-8.29112 1.06418,1.06419 15.23484,61.0976 14.56972,61.72403 -0.42196,0.39741 -19.4422,11.59213 -42.2672,24.87715 -22.825,13.28502 -41.99552,24.69011 -42.60115,25.34463 -2.10863,2.27887 -7.73465,19.75425 -6.69453,20.79437 0.61983,0.61983 10.96653,0.87926 27.64397,0.69314 14.65935,-0.1636 26.653,-0.0496 26.65254,0.25327 -4.6e-4,0.30291 -2.03787,1.54041 -4.52758,2.75 -4.28892,2.08372 -5.82571,2.19959 -29.25,2.20544 l -24.72325,0.006 -14.25,41.78745 -14.25,41.78745 0,21.20638 c 0,11.6635 0.3375,21.19481 0.75,21.18069 0.4125,-0.0141 9.51914,-21.79977 20.23698,-48.41255 10.71784,-26.61279 19.7766,-48.20788 20.1306,-47.9891 1.72902,1.06859 1.43736,6.18377 -0.65736,11.52884 l -2.30464,5.88073 52.17221,0.25888 c 47.16045,0.23401 51.78796,0.39961 48.17221,1.72387 -3.26008,1.19399 -13.03092,1.52442 -52.82107,1.78626 l -48.82106,0.32128 -2.40143,5.43005 c -1.32079,2.98653 -2.68759,6.57021 -3.03734,7.96374 l -0.63592,2.53386 27.85841,0.0816 c 26.42632,0.0774 27.67849,0.16434 24.35841,1.69162 -2.46716,1.13493 -7.8345,1.78125 -18.18843,2.19019 -8.07864,0.31908 -14.86833,0.79535 -15.08821,1.05838 -0.21988,0.26303 -7.44758,19.75425 -16.06157,43.31383 l -15.66179,42.83555 0,35.11442 c 0,19.31292 0.37815,34.68691 0.84032,34.16441 0.46218,-0.5225 11.32726,-25.925 24.14462,-56.45 z m 151.66464,3.9914 c -13.26209,-19.54549 -21.45435,-32.51648 -21.00949,-33.2648 0.40106,-0.67463 4.10361,-5.3891 8.22788,-10.4766 l 7.49867,-9.25 56.06668,0.0558 56.06668,0.0558 4.5,5.66131 c 2.475,3.11373 6.15998,7.73098 8.18885,10.26055 l 3.68886,4.59924 -21.68905,31.93363 -21.68905,31.93364 -29.05567,0.2648 -29.05566,0.26479 -21.7387,-32.03819 z m 96.444,-2.2414 c 11.0856,-15.5375 20.36779,-28.79968 20.62709,-29.47151 0.25929,-0.67183 -2.57268,-4.60933 -6.29327,-8.75 l -6.76471,-7.52849 -53.58134,0.0649 -53.58135,0.0649 -6.5,7.55614 c -3.575,4.15588 -6.38366,7.96319 -6.24147,8.46069 0.1422,0.49749 9.3672,13.70897 20.5,29.35884 l 20.24147,28.45431 25.71897,0.0201 25.71897,0.0201 20.15564,-28.25 z m -84.81884,2.94984 -14.22526,-20.19984 26.40468,-0.2662 c 14.52257,-0.14641 38.55401,-0.14641 53.4032,0 l 26.99852,0.2662 -14.54392,20.25 -14.54391,20.25 -24.63403,-0.0502 -24.63402,-0.0502 -14.22526,-20.19984 z m -18.40695,-26.44165 c -4.76662,-5.75196 -10.1791,-5.25819 57.63792,-5.25819 l 61.75061,0 -2.50616,3.25 -2.50615,3.25 -56.45961,0.25819 c -52.83501,0.24161 -56.55315,0.14531 -57.91661,-1.5 z m 0.13221,-10.06683 c 0,-0.16975 1.42531,-2.08225 3.16736,-4.25 l 3.16737,-3.94136 51.25983,0 51.25983,0 3.07281,3.72784 c 1.69004,2.05032 3.0728,3.96282 3.0728,4.25 0,0.28719 -25.875,0.52216 -57.5,0.52216 -31.625,0 -57.5,-0.13889 -57.5,-0.30864 z m 10.26377,-129.44136 c -1.60993,-2.8875 -7.14045,-13.24646 -12.29006,-23.01992 l -9.36291,-17.76991 -21.5554,-6.90486 c -11.85547,-3.79767 -28.15066,-9.00288 -36.21153,-11.56714 -14.90102,-4.74018 -15.77457,-5.3023 -15.83022,-10.18663 -0.0116,-1.02314 21.6873,5.94542 69.62072,22.35852 l 7.13438,2.44292 3.53973,7.69851 c 1.94685,4.23418 7.14656,15.46101 11.55491,24.94851 7.70188,16.57572 9.51077,22.95933 3.40038,12 z m 98.09842,-14.5 c 5.07975,-10.8625 10.56384,-22.19118 12.18686,-25.17485 l 2.95095,-5.42485 37.79356,-12.61493 c 20.78645,-6.9382 37.93453,-12.47395 38.10683,-12.30164 0.17231,0.1723 0.0909,1.47648 -0.18085,2.89817 -0.62558,3.27249 0.23923,2.93339 -39.21954,15.37846 -19.04164,6.00563 -33.15092,10.97934 -34.07187,12.01078 -0.86453,0.96826 -6.00134,10.2471 -11.41514,20.61966 -10.26109,19.65973 -13.06195,24.3592 -14.51795,24.3592 -0.47782,0 3.2874,-8.8875 8.36715,-19.75 z m -117.9274,4.23902 c -9.85716,-5.14618 -12.02482,-5.8275 -32.74536,-10.29236 l -22.18943,-4.78137 -6.81749,-9.95765 c -9.10901,-13.30464 -8.89482,-12.84396 -6.62953,-14.25866 1.72041,-1.07441 2.61229,-0.26385 8.86937,8.06063 l 6.95661,9.25515 22.31052,5.33885 c 21.9037,5.24151 22.486,5.44788 31.93436,11.31803 5.494,3.41335 10.09791,7.01963 10.72856,8.40377 1.68483,3.69779 -0.42959,3.17225 -12.41761,-3.08639 z m 120.56521,5.01263 c 0,-2.22643 3.10108,-5.04868 11.16364,-10.15985 8.96154,-5.68108 9.71482,-5.95059 31.73197,-11.35298 l 22.55253,-5.53377 5.14866,-6.6673 c 2.83176,-3.66702 6.07852,-7.93191 7.21503,-9.47753 1.91578,-2.60541 2.18738,-2.69105 3.7267,-1.17508 1.54396,1.52055 1.15259,2.3966 -5.58433,12.5 -3.98455,5.97567 -7.39168,11.03975 -7.57139,11.2535 -0.17971,0.21375 -10.28875,2.58185 -22.46453,5.26246 -19.5188,4.29724 -23.27824,5.45262 -31.77803,9.76633 -9.89125,5.01988 -14.14025,6.69788 -14.14025,5.58422 z m -149.5,-26.99207 -12,-3.31336 -8.19146,-8.78832 c -4.50531,-4.83357 -7.99982,-9.09841 -7.76559,-9.4774 1.23523,-1.99864 6.07236,-0.89581 28.45705,6.48797 18.08181,5.96444 24.58131,8.52236 24.81038,9.7643 0.34115,1.84963 -9.16422,8.88272 -11.79703,8.7287 -0.83234,-0.0487 -6.91335,-1.57954 -13.51335,-3.40189 z m 170.95431,-0.29184 c -3.38273,-2.49245 -4.92407,-4.2945 -4.67668,-5.46774 0.20296,-0.9625 0.52541,-1.75 0.71656,-1.75 0.19114,0 10.76876,-3.375 23.50581,-7.5 21.74309,-7.04168 28.26407,-8.5426 29.32645,-6.75 0.24447,0.4125 -3.27763,4.7195 -7.8269,9.57112 l -8.2714,8.82111 -12.63529,3.42889 c -6.94942,1.88588 -13.18825,3.41436 -13.86408,3.39662 -0.67583,-0.0177 -3.49934,-1.70524 -6.27447,-3.75 z M 215.78589,393.07727 c -17.03268,-2.95748 -31.44192,-5.5589 -32.02054,-5.78093 -0.61188,-0.2348 -2.49125,-14.91888 -4.49196,-35.09694 l -3.43993,-34.69324 -11.18027,-14.59324 c -8.86501,-11.57122 -11.29314,-15.4348 -11.72533,-18.65706 -0.49663,-3.7026 -0.21583,-5.58723 0.67325,-4.51877 0.1907,0.22917 20.94748,26.29167 46.1262,57.91667 25.17871,31.625 46.46743,58.2875 47.30827,59.25 0.84084,0.9625 1.12155,1.70517 0.62381,1.65037 -0.49775,-0.0548 -14.84082,-2.51938 -31.8735,-5.47686 z m 342.05189,4.44158 c 1.03558,-1.67561 91.12791,-114.81111 93.03383,-116.82938 1.19039,-1.26054 1.38279,-0.89756 1.38279,2.60883 0,3.65277 -1.17821,5.61692 -11.4171,19.03292 l -11.4171,14.95981 -1.59809,15.43137 c -4.53949,43.83388 -5.67124,54.36706 -5.86054,54.54408 -0.11394,0.10654 -13.93217,2.51782 -30.70717,5.35839 -16.775,2.84057 -31.34385,5.40734 -32.37523,5.70392 -1.38779,0.39907 -1.65849,0.18854 -1.04139,-0.80994 z M 206.723,814.40376 l 13.85692,-7.25 14.33724,-31.43779 c 7.88548,-17.29079 14.33724,-31.7103 14.33724,-32.04335 0,-0.73949 -17.49223,-11.01886 -18.7506,-11.01886 -0.49366,0 -9.48033,20.025 -19.97038,44.5 -10.49004,24.475 -18.75658,44.5 -18.37008,44.5 0.38651,0 6.93835,-3.2625 14.55966,-7.25 z m 406.13343,5.6553 c -0.33656,-0.87708 -8.97012,-21.09429 -19.18568,-44.92714 l -18.57374,-43.33244 -9.15535,5.37928 c -5.03544,2.9586 -9.32028,5.87405 -9.52186,6.47879 -0.20157,0.60473 6.07676,15.18753 13.95185,32.40622 l 14.31835,31.3067 13.5322,7.12027 c 7.44271,3.91614 13.91784,7.12988 14.38919,7.14164 0.47134,0.0118 0.58161,-0.69623 0.24504,-1.57332 z m -332.65231,-57.4053 c 0.004,-1.12911 -17.26466,-10.08166 -17.98325,-9.32315 -0.61227,0.64628 -6.19479,13.47185 -12.69804,29.17313 -0.30753,0.74249 6.46958,-3.30751 15.06025,-9 8.59066,-5.69249 15.62013,-10.57498 15.62104,-10.84998 z m 275.05028,19.63138 c 0,-0.63212 -12.02654,-28.99126 -12.492,-29.45671 -0.65544,-0.65544 -17.54178,9.2015 -17.25445,10.07181 0.28482,0.8627 27.87007,19.59431 28.99645,19.68988 0.4125,0.035 0.75,-0.10224 0.75,-0.30498 z M 190.16602,722.50223 c 6.09861,-16.85835 11.08838,-30.93978 11.08838,-31.29207 0,-0.35229 -3.4836,-0.5091 -7.74133,-0.34846 l -7.74133,0.29206 -3.6309,8.5 -3.6309,8.5 -0.43693,23.25916 c -0.24031,12.79253 -0.11257,22.91753 0.28385,22.5 0.39643,-0.41754 5.71056,-14.55235 11.80916,-31.41069 z m 433.21155,-21.93848 -3.91356,-9.40999 -7.6048,-0.29206 c -5.67767,-0.21806 -7.60481,0.0334 -7.60481,0.99242 0,0.70647 5.0625,15.22885 11.25,32.27195 l 11.25,30.98746 0.26836,-22.56989 0.26837,-22.56989 z M 410.7544,351.66729 c 24.08308,-3.91304 41.35293,-27.68442 37.60608,-51.76353 -3.85468,-24.77199 -28.0784,-42.61332 -52.04273,-38.33066 -19.89692,3.55578 -34.75209,18.44929 -38.07978,38.17806 -3.25031,19.27005 7.5556,39.64451 25.47294,48.02905 9.50095,4.44603 16.98385,5.52158 27.04349,3.88708 z m -21,-16.86357 c -6.984,-3.31562 -13.65726,-10.08675 -16.68553,-16.93026 -3.20542,-7.24385 -3.58931,-19.17949 -0.85042,-26.44068 2.72713,-7.23 9.2434,-14.04912 16.81561,-17.59713 7.5848,-3.5539 19.18992,-3.72246 26.53436,-0.38541 2.64771,1.20303 4.55741,2.60254 4.24377,3.11001 -0.31364,0.50748 -0.005,1.1506 0.68598,1.42915 0.69093,0.27856 -0.76877,0.54639 -3.24377,0.59518 -14.00761,0.27616 -26.51987,14.96387 -24.61107,28.89008 1.67579,12.22621 14.88678,22.47848 26.89084,20.8684 3.076,-0.41258 3.60609,-0.25669 2.72741,0.80205 -0.80107,0.96523 -0.74768,1.43997 0.20108,1.788 0.71046,0.26061 -1.63326,1.87901 -5.20826,3.59645 -5.49847,2.64148 -7.65561,3.12262 -14,3.12262 -6.17374,0 -8.56101,-0.50371 -13.5,-2.84846 z"
       id="path3739"
       inkscape:connector-curvature="0"
       sodipodi:nodetypes="csssssscssscssscssscssssscscssscccssssscccscscssscccsscsscscsssscssscsscsscsssscccssssscccscscccccccccscsssscscscccssssscscssscssssscccsssscssscsscscsscsssscsssscsscssscsssscccccssccsscsssssssscsscscccssssssscsscccssscssssscsssscssscssssssssscscsssscsssssscsscsscscscscssscccsscscccsscscscssssssssssssssscccsssscsssscscccssscscsscssssssssssscccscssscssscsccssssscssscsscccsscccccccccscccscscccccccsscccccccsscccsssscccsssssscsscscssssscsccssssssscssscssssssscssssssssscsssssssssssscscsssscssssssssssscscsssscsssssssscssscscscssscsssssssscccsssccsssccccsssssssssssscssssssss" />
  </g>
</svg>
