<?xml version="1.0" encoding="UTF-8" standalone="no"?>
<!-- Created with Inkscape (http://www.inkscape.org/) -->

<svg
   xmlns:dc="http://purl.org/dc/elements/1.1/"
   xmlns:cc="http://creativecommons.org/ns#"
   xmlns:rdf="http://www.w3.org/1999/02/22-rdf-syntax-ns#"
   xmlns:svg="http://www.w3.org/2000/svg"
   xmlns="http://www.w3.org/2000/svg"
   xmlns:sodipodi="http://sodipodi.sourceforge.net/DTD/sodipodi-0.dtd"
   xmlns:inkscape="http://www.inkscape.org/namespaces/inkscape"
   width="93.795967"
   height="94.451759"
   id="svg2"
   version="1.1"
   inkscape:version="0.48.4 r9939"
   sodipodi:docname="New document 1">
  <defs
     id="defs4" />
  <sodipodi:namedview
     id="base"
     pagecolor="#ffffff"
     bordercolor="#666666"
     borderopacity="1.0"
     inkscape:pageopacity="0"
     inkscape:pageshadow="2"
     inkscape:zoom="3.959798"
     inkscape:cx="160.70102"
     inkscape:cy="32.1426"
     inkscape:document-units="px"
     inkscape:current-layer="layer1"
     showgrid="false"
     fit-margin-top="0"
     fit-margin-left="0"
     fit-margin-right="0"
     fit-margin-bottom="0"
     inkscape:window-width="1920"
     inkscape:window-height="1015"
     inkscape:window-x="0"
     inkscape:window-y="26"
     inkscape:window-maximized="1" />
  <metadata
     id="metadata7">
    <rdf:RDF>
      <cc:Work
         rdf:about="">
        <dc:format>image/svg+xml</dc:format>
        <dc:type
           rdf:resource="http://purl.org/dc/dcmitype/StillImage" />
        <dc:title></dc:title>
      </cc:Work>
    </rdf:RDF>
  </metadata>
  <g
     inkscape:label="Layer 1"
     inkscape:groupmode="layer"
     id="layer1"
     transform="translate(-601.19209,-554.88494)">
    <path
       inkscape:connector-curvature="0"
       id="path3128"
       d="m 638.0601,645.65567 c -14.51685,-4.35202 -24.82943,-12.94139 -30.72233,-25.58869 -3.42436,-7.34932 -3.6341,-8.3866 -3.69853,-18.29115 -0.0824,-12.66762 1.58621,-18.28778 8.0274,-27.03753 10.74515,-14.59625 32.19838,-21.70642 48.53501,-16.08579 17.96181,6.17977 28.25436,17.70322 32.31248,36.1768 1.54671,7.04099 1.54628,8.05872 -0.006,15 -3.39934,15.19663 -12.57126,27.29517 -25.1742,33.20654 -5.91271,2.77333 -7.98152,3.2085 -16.27383,3.42316 -5.225,0.13526 -11.075,-0.22625 -13,-0.80334 z m 35,-37.87984 c 0,-0.55 -0.45,-1 -1,-1 -0.55,0 -1,0.45 -1,1 0,0.55 0.45,1 1,1 0.55,0 1,-0.45 1,-1 z m -18.58179,-7.60699 c 1.87496,-0.71949 2.12704,-5.03084 0.33179,-5.67455 -1.70628,-0.61181 -4.75,1.06494 -4.75,2.61672 0,0.69565 0.54,1.80482 1.2,2.46482 1.40234,1.40234 1.20426,1.36584 3.21821,0.59301 z m 17.37184,-14.03377 c 2.33106,-0.62444 5.20995,-4.96493 5.20995,-7.85504 0,-2.42877 -4.60149,-6.5042 -7.34376,-6.5042 -4.04034,0 -7.05624,3.20557 -7.05624,7.5 0,2.71964 0.63834,4.27458 2.31078,5.62884 2.49251,2.01831 3.35925,2.17333 6.87927,1.2304 z"
       style="fill:#e2dab8" />
    <path
       inkscape:connector-curvature="0"
       id="path3126"
       d="m 637.0601,647.94296 c -15.22812,-4.30086 -25.63476,-12.83761 -31.85176,-26.12855 -3.08695,-6.59939 -3.57882,-8.73621 -3.94806,-17.15152 -0.68776,-15.67478 3.80548,-27.12183 14.47282,-36.87118 16.70928,-15.27134 39.20723,-17.14131 57.82924,-4.8066 9.75782,6.46331 16.43723,15.84963 19.88573,27.94463 6.54446,22.95352 -8.43841,49.15474 -32.26945,56.43106 -7.89725,2.41126 -16.87493,2.62796 -24.11852,0.58216 z m 30.27383,-4.90711 c 12.60294,-5.91137 21.77486,-18.00991 25.17391,-33.20654 1.55257,-6.94128 1.553,-7.95901 0.006,-15 -4.05783,-18.47358 -14.35038,-29.99703 -32.31219,-36.1768 -16.33663,-5.62063 -37.78986,1.48954 -48.53501,16.08579 -6.44119,8.74975 -8.10981,14.36991 -8.0274,27.03753 0.0644,9.90455 0.27417,10.94183 3.69853,18.29115 4.55201,9.7695 12.09276,17.56039 20.95195,21.647 9.54247,4.40178 12.46931,5.01169 22.77038,4.74503 8.29231,-0.21466 10.36112,-0.64983 16.27383,-3.42316 z m 3.72617,-35.26002 c 0,-0.55 0.45,-1 1,-1 0.55,0 1,0.45 1,1 0,0.55 -0.45,1 -1,1 -0.55,0 -1,-0.45 -1,-1 z m -19.8,-8.2 c -0.66,-0.66 -1.2,-1.76917 -1.2,-2.46482 0,-1.55178 3.04372,-3.22853 4.75,-2.61672 1.79525,0.64371 1.54317,4.95506 -0.33179,5.67455 -2.01395,0.77283 -1.81587,0.80933 -3.21821,-0.59301 z m 13.71078,-14.67116 c -5.02356,-4.06784 -1.74844,-13.12884 4.74546,-13.12884 2.74227,0 7.34376,4.07543 7.34376,6.5042 0,2.89011 -2.87889,7.2306 -5.20995,7.85504 -3.52002,0.94293 -4.38676,0.78791 -6.87927,-1.2304 z"
       style="fill:#aca390" />
  </g>
</svg>
