<svg viewbox="0 570 0 72">
 <g
     transform="translate(-78.488133,-203.37933)"
     id="layer1">
    <g id="text2985">
 		<path d="m 148.20686,240.09933 c -5.39999,6.26399 -10.44,10.8 -11.808,10.8 -1.08,0 -1.224,-0.72 -0.216,-3.672 l 14.832,-43.2 c -16.48798,-5.32799 -35.28002,45.288 -54.432,45.432 -11.519988,0.072 -14.615994,-11.01601 -8.712,-21.024 6.479994,-11.01599 17.784,-11.23199 21.312,-2.664 l 5.976,-2.304 c -5.83199,-13.46399 -24.696008,-12.38399 -32.904,1.728 -8.855991,15.26398 -1.295984,30.744 14.328,30.744 10.29599,0 18.50401,-8.35201 25.992,-18.288 l 10.08,0 -2.664,7.632 c -1.944,5.54399 -1.43999,10.656 3.96,10.656 5.47199,0 11.37601,-6.62401 17.568,-13.824 -0.504,-1.008 -1.8,-2.16 -2.808,-2.592 l -0.504,0.576 m -6.84,-27.288 -7.488,21.24 -8.64,0 c 5.54399,-7.63199 10.72801,-15.69601 16.128,-21.24" id="path3063" /> <path d="m 183.56899,240.09933 c -5.4,6.26399 -10.65601,11.232 -13.968,11.232 -1.656,0 -2.592,-1.152 -0.864,-4.104 l 15.984,-28.008 -7.488,0 -13.32,23.256 c -5.688,5.18399 -10.08001,8.064 -11.52,7.416 -1.872,-0.792 0,-3.6 0.936,-5.184 l 14.616,-25.488 -7.488,0 -14.688,25.416 c -3.816,6.62399 -2.088,11.304 2.88,11.304 4.10399,0 8.712,-3.744 12.312,-7.2 -0.72,4.032 1.656,7.2 6.408,7.2 6.19199,0 13.32,-6.62401 19.512,-13.824 -0.504,-1.008 -1.80001,-2.16 -2.808,-2.592 l -0.504,0.576" id="path3065" /> <path d="m 218.01649,229.01133 c 4.31999,-7.41599 11.95199,-6.19199 7.488,1.584 l -1.08,1.872 6.12,0 1.08,-1.872 c 4.03199,-6.91199 0.14399,-12.096 -5.976,-12.096 -6.048,0 -10.87201,3.16801 -14.04,8.64 l -7.848,13.464 c -4.68,7.99199 -0.648,15.336 8.208,15.336 8.49599,0 16.92,-6.62401 23.112,-13.824 -0.504,-1.008 -1.80001,-2.16 -2.808,-2.592 l -0.504,0.576 c -5.4,6.26399 -12.31201,11.232 -17.568,11.232 -4.608,0 -7.344,-2.88001 -3.888,-8.928 l 7.704,-13.392" id="path3067" /> <path d="m 252.34024,249.38733 c 4.46399,0 2.42863,-3.24108 6.24463,-7.77708 -0.504,-1.008 7.29136,-1.65492 6.28337,-2.08692 l -3.02938,-1.19177 c -3.384,3.672 -5.03463,7.23977 -8.77862,7.31177 l 7.056,-12.168 c 4.53599,-7.84799 0.35999,-15.264 -6.696,-15.264 -5.76,0 -10.22401,2.30401 -14.544,9.792 l -3.672,6.408 -3.24,5.544 c -9.432,16.19998 8.64001,22.17599 18.72,9.432 l 1.656,0 m -7.488,-2.376 -0.072,0.144 c -3.528,6.04799 -12.096,4.89599 -7.632,-2.88 l 5.688,-9.864 3.6,-6.12 c 5.25599,-8.92799 12.45599,-5.39999 7.92,2.376 l -5.472,9.36" id="path3069" /> <path d="m 281.17324,232.46733 1.08,-1.872 c 4.032,-6.91199 0.14399,-12.096 -5.976,-12.096 -6.04799,0 -10.872,3.16801 -14.04,8.64 l -7.848,13.464 c -4.68,7.99199 -0.64799,15.336 8.208,15.336 8.49599,0 16.92001,-6.62401 23.112,-13.824 -0.504,-1.008 -1.8,-2.16 -2.808,-2.592 l -0.504,0.576 c -5.4,6.26399 -12.31201,11.232 -17.568,11.232 -4.608,0 -7.344,-2.88001 -3.888,-8.928 l 0.72,-1.296 c 4.82399,2.016 13.896,1.07999 19.512,-8.64 m -12.528,-3.456 c 4.31999,-7.41599 11.95199,-6.19199 7.488,1.584 l -1.08,1.872 c -3.6,6.11999 -8.424,5.976 -11.232,4.968 l 4.824,-8.424" id="path3071" /> <path d="m 317.72899,240.09933 c -5.4,6.26399 -10.656,11.232 -13.968,11.232 -1.656,0 -2.592,-1.152 -0.864,-4.104 l 15.984,-28.008 -7.488,0 -13.32,23.256 c -5.688,5.18399 -10.08,8.064 -11.52,7.416 -1.872,-0.792 0,-3.6 0.936,-5.184 l 14.616,-25.488 -7.488,0 -14.688,25.416 c -3.816,6.62399 -2.088,11.304 2.88,11.304 4.10399,0 8.712,-3.744 12.312,-7.2 -0.72,4.032 1.656,7.2 6.408,7.2 6.19199,0 13.32001,-6.62401 19.512,-13.824 -0.504,-1.008 -1.8,-2.16 -2.808,-2.592 l -0.504,0.576" id="path3073" /> <path d="m 326.88986,245.28333 c -3.16799,5.54399 -0.93599,10.656 5.112,10.656 6.192,0 13.32001,-6.62401 19.512,-13.824 -0.504,-1.008 -1.8,-2.16 -2.808,-2.592 l -0.504,0.576 c -5.39999,6.26399 -10.656,11.232 -13.968,11.232 -1.65599,0 -2.59199,-1.152 -0.864,-4.104 l 7.488,-13.104 c 2.592,-4.536 1.368,-7.2 -1.08,-10.152 l -4.176,-5.04 c -1.07999,-1.368 -1.07999,-2.88 0.432,-4.32 l -3.888,-4.248 c -4.24799,3.816 -4.60799,8.064 -1.944,11.52 l 0.648,0.864 c -3.31199,4.68 -7.776,11.01601 -12.672,16.776 0.648,0.936 1.72801,1.872 2.808,2.592 3.6,-4.176 6.40801,-7.92001 12.384,-16.056 l 1.008,1.224 c 0.936,1.224 1.296,2.736 0.432,4.248 l -7.92,13.752" id="path3075" /> <path d="m 403.93211,240.09933 c -5.39999,6.26399 -10.656,11.232 -13.968,11.232 -1.65599,0 -2.59199,-1.152 -0.864,-4.104 l 25.344,-43.848 -7.488,0 -11.016,19.008 c -1.29599,-2.088 -3.744,-3.888 -6.84,-3.888 -4.03199,0 -9.648,3.16801 -12.816,8.64 l -10.512,18.144 c -3.16799,5.54399 -0.93599,10.656 5.112,10.656 3.024,0 6.76801,-1.944 10.368,-4.896 0.36,2.88 2.66401,4.896 6.48,4.896 6.192,0 13.32001,-6.62401 19.512,-13.824 -0.504,-1.008 -1.8,-2.16 -2.808,-2.592 l -0.504,0.576 m -21.24,-11.088 c 4.032,-6.98399 12.024,-5.18399 8.352,1.584 l 0.072,0 -5.688,9.792 c -4.53599,7.41599 -9.144,10.944 -12.312,10.944 -1.65599,0 -2.59199,-1.152 -0.864,-4.104 l 10.44,-18.216" id="path3077" /> <path d="m 430.51699,232.46733 1.08,-1.872 c 4.032,-6.91199 0.14399,-12.096 -5.976,-12.096 -6.04799,0 -10.872,3.16801 -14.04,8.64 l -7.848,13.464 c -4.68,7.99199 -0.64799,15.336 8.208,15.336 8.49599,0 16.92001,-6.62401 23.112,-13.824 -0.504,-1.008 -1.8,-2.16 -2.808,-2.592 l -0.504,0.576 c -5.4,6.26399 -12.31201,11.232 -17.568,11.232 -4.608,0 -7.344,-2.88001 -3.888,-8.928 l 0.72,-1.296 c 4.82399,2.016 13.896,1.07999 19.512,-8.64 m -12.528,-3.456 c 4.31999,-7.41599 11.95199,-6.19199 7.488,1.584 l -1.08,1.872 c -3.6,6.11999 -8.424,5.976 -11.232,4.968 l 4.824,-8.424" id="path3079" /> <path d="m 455.35136,252.84333 0.072,0 0.144,0 c 2.664,-0.216 5.328,1.512 4.104,4.032 -10.22399,3.096 -16.632,7.27201 -16.632,12.888 0,7.19999 11.37601,8.85599 16.704,-0.432 l 3.96,-6.912 c 0.576,-1.08 1.008,-2.016 1.296,-2.952 7.92,-2.448 15.55201,-7.77601 23.832,-17.352 -0.504,-1.008 -1.8,-2.16 -2.808,-2.592 l -0.504,0.576 c -7.12799,8.20799 -13.032,13.032 -20.088,15.192 -0.216,-1.8 -1.08,-3.24 -2.304,-4.248 l 0.288,-0.072 c 19.72798,-8.92799 26.92799,-32.472 14.112,-32.472 -9.86399,0 -18.144,13.10401 -24.912,21.024 0.648,0.936 1.72801,1.872 2.808,2.592 4.248,-4.896 16.63201,-21.096 20.52,-17.208 4.464,4.464 -8.92801,19.368 -21.024,23.4 l 0.504,4.464 -0.072,0.072 m -6.264,15.552 c 0,-1.944 1.80001,-4.176 7.632,-6.408 l -3.528,6.048 c -1.65599,2.808 -4.104,2.376 -4.104,0.36" id="path3081" /> <path d="m 512.22011,232.46733 1.08,-1.872 c 4.032,-6.91199 0.144,-12.096 -5.976,-12.096 -6.04799,0 -10.872,3.16801 -14.04,8.64 l -7.848,13.464 c -4.67999,7.99199 -0.64799,15.336 8.208,15.336 8.496,0 16.92001,-6.62401 23.112,-13.824 -0.504,-1.008 -1.8,-2.16 -2.808,-2.592 l -0.504,0.576 c -5.39999,6.26399 -12.312,11.232 -17.568,11.232 -4.60799,0 -7.34399,-2.88001 -3.888,-8.928 l 0.72,-1.296 c 4.824,2.016 13.89601,1.07999 19.512,-8.64 m -12.528,-3.456 c 4.32,-7.41599 11.952,-6.19199 7.488,1.584 l -1.08,1.872 c -3.59999,6.11999 -8.424,5.976 -11.232,4.968 l 4.824,-8.424" id="path3083" /> <path d="m 503.34386,271.05933 22.392,-38.952 c 8.352,-11.37599 13.608,-7.2 11.664,-3.816 l -11.304,19.584 c -1.22399,2.16 -4.032,2.808 -5.4,0 l -4.248,2.016 c 0,0 1.36801,6.048 8.208,6.048 l 0.432,0 c 10.87199,-0.216 18.00001,-6.69601 24.12,-13.824 -0.432,-1.152 -1.728,-2.304 -2.808,-2.592 l -0.504,0.576 c -4.17599,4.89599 -9.144,8.928 -13.68,10.512 1.224,-1.944 2.16001,-4.032 3.096,-5.616 l 8.28,-14.184 c 6.984,-11.87999 -4.32,-15.83999 -11.952,-9 l 1.512,-2.592 -7.488,0 -29.88,51.84 7.56,0" id="path3085" /> <path d="m 581.26024,240.09933 c -5.4,6.26399 -10.656,11.232 -13.968,11.232 -1.656,0 -2.592,-1.152 -0.864,-4.104 l 10.8,-18.936 c 3.24,-5.68799 0.14399,-9.792 -4.032,-9.792 -3.24,0 -6.696,1.8 -10.44,5.688 l 11.952,-20.808 -7.488,0 -29.88,51.84 7.56,0 11.376,-19.8 c 11.51999,-14.47199 16.632,-12.59999 13.392,-7.056 l -9.72,16.92 c -3.168,5.54399 -0.93599,10.656 5.112,10.656 6.19199,0 13.32001,-6.62401 19.512,-13.824 -0.504,-1.008 -1.8,-2.16 -2.808,-2.592 l -0.504,0.576" id="path3087" /> <path d="m 585.38111,249.89133 c -1.87199,-0.792 10e-6,-3.6 0.936,-5.184 l 14.616,-25.488 -7.488,0 -14.688,25.416 c -3.81599,6.62399 -2.08799,11.304 2.88,11.304 3.6,0 7.70401,-3.024 11.088,-6.048 l -4.104,7.056 c -10.15199,3.024 -16.488,7.20001 -16.488,12.816 0,7.19999 11.01601,8.71199 16.416,-0.504 l 5.76,-9.864 c 7.776,-2.448 15.40801,-7.77601 23.616,-17.28 -0.504,-1.008 -1.8,-2.16 -2.808,-2.592 l -0.504,0.576 c -6.19199,7.12799 -11.448,11.736 -17.352,14.256 l 20.52,-35.136 -7.488,0 -13.248,23.04 c -5.75999,5.32799 -10.224,8.28 -11.664,7.632 m -7.2,18.504 c 0,-1.944 1.80001,-4.176 7.56,-6.408 l -3.456,6.048 c -1.58399,2.808 -4.104,2.376 -4.104,0.36" id="path3089" /> <path d="m 623.88983,245.28333 c -3.16799,5.54399 -0.93599,10.656 5.112,10.656 6.192,0 13.32001,-6.62401 19.512,-13.824 -0.504,-1.008 -1.8,-2.16 -2.808,-2.592 l -0.504,0.576 c -5.39999,6.26399 -10.656,11.232 -13.968,11.232 -1.65599,0 -2.59199,-1.152 -0.864,-4.104 l 7.488,-13.104 c 2.592,-4.536 1.368,-7.2 -1.08,-10.152 l -4.176,-5.04 c -1.08,-1.368 -1.07999,-2.88 0.432,-4.32 l -3.888,-4.248 c -4.24799,3.816 -4.60799,8.064 -1.944,11.52 l 0.648,0.864 c -3.31199,4.68 -7.776,11.01601 -12.672,16.776 0.648,0.936 1.728,1.872 2.808,2.592 3.6,-4.176 6.40801,-7.92001 12.384,-16.056 l 1.008,1.224 c 0.936,1.224 1.296,2.736 0.432,4.248 l -7.92,13.752" id="path3091" />
    </g>
  </g>	
</svg>